<?xml version="1.0" standalone="no"?>
<!DOCTYPE svg PUBLIC "-//W3C//DTD SVG 20010904//EN"
 "http://www.w3.org/TR/2001/REC-SVG-20010904/DTD/svg10.dtd">
<svg version="1.0" xmlns="http://www.w3.org/2000/svg"
 width="1457.000000pt" height="1718.000000pt" viewBox="0 0 1457.000000 1718.000000"
 preserveAspectRatio="xMidYMid meet">

<g transform="translate(0.000000,1718.000000) scale(0.100000,-0.100000)"
fill="#000000" stroke="none">
<path d="M5705 15030 c-95 -12 -185 -31 -180 -39 2 -4 -11 -5 -30 -3 -35 4
-80 -14 -175 -69 -30 -17 -77 -43 -105 -57 -27 -14 -54 -29 -60 -34 -5 -4 -24
-18 -42 -31 -30 -21 -113 -86 -161 -127 -13 -11 -27 -20 -30 -20 -4 0 -40 -31
-80 -70 -74 -70 -150 -120 -182 -120 -9 0 -31 -16 -48 -35 -18 -19 -43 -42
-57 -51 -14 -9 -23 -20 -20 -24 3 -4 -19 -28 -49 -53 -47 -41 -126 -152 -126
-178 0 -6 -4 -7 -10 -4 -5 3 -10 1 -10 -5 0 -7 -15 -38 -34 -69 -37 -64 -52
-116 -68 -234 -9 -67 -8 -92 11 -190 20 -104 66 -255 81 -267 4 -3 10 -18 14
-35 11 -45 57 -136 73 -142 7 -3 13 -11 13 -18 0 -6 10 -23 21 -36 12 -13 30
-43 40 -65 11 -23 26 -44 34 -48 8 -3 15 -10 15 -16 0 -6 10 -22 23 -36 26
-30 32 -36 125 -144 40 -47 76 -89 80 -95 4 -5 8 -37 9 -70 2 -81 5 -112 10
-97 3 6 9 9 15 6 5 -3 9 0 7 7 -4 34 2 40 39 37 29 -1 48 -12 87 -49 28 -26
76 -68 108 -94 31 -26 57 -51 57 -56 0 -11 103 -79 163 -106 27 -13 61 -23 76
-23 44 0 58 -26 65 -123 3 -49 13 -100 20 -115 22 -41 101 -102 132 -102 22 0
25 -3 16 -12 -16 -16 -15 -52 1 -81 18 -33 27 -37 87 -37 33 0 73 -8 99 -20
24 -11 51 -20 60 -20 9 0 21 -4 27 -10 5 -5 37 -13 71 -16 68 -7 91 7 57 35
-10 9 -25 29 -31 44 -7 15 -21 30 -30 34 -10 3 -28 17 -40 31 l-21 25 48 38
c26 20 63 57 82 81 33 41 78 124 78 144 0 5 6 20 13 34 17 32 21 183 5 174 -7
-5 -9 -1 -5 9 9 25 -83 147 -111 147 -5 0 -13 7 -16 16 -4 9 -9 14 -12 11 -3
-3 -31 8 -62 24 -31 16 -63 29 -72 29 -8 0 -51 9 -94 20 -43 10 -82 19 -85 18
-17 -3 -61 24 -84 51 -14 17 -30 31 -35 31 -5 0 -37 18 -70 40 -33 22 -64 40
-69 40 -18 0 -113 112 -151 178 -20 35 -50 85 -65 110 -31 53 -38 67 -60 135
-9 26 -14 54 -11 62 10 24 63 34 204 39 74 3 196 9 270 14 130 9 1144 8 1205
-1 17 -2 80 -5 141 -5 71 -1 116 -6 128 -15 15 -11 18 -35 21 -177 2 -91 9
-187 14 -215 42 -209 66 -282 126 -380 16 -27 32 -52 35 -55 3 -3 32 -45 65
-94 56 -83 198 -226 225 -226 6 0 26 -33 44 -72 22 -48 51 -90 84 -122 l51
-49 88 -2 c48 -1 107 -7 130 -15 37 -11 48 -11 89 5 56 21 107 65 124 105 15
36 27 37 128 13 63 -15 74 -15 86 -2 18 18 37 107 25 115 -5 3 -9 18 -9 34 0
20 -6 31 -20 35 -11 4 -18 10 -16 14 3 4 -11 15 -30 26 -41 22 -88 80 -80 100
3 9 0 15 -8 15 -8 0 -23 16 -35 35 -11 19 -24 35 -29 35 -5 0 -14 11 -21 24
-14 25 -97 66 -135 66 -42 0 -110 36 -144 76 -32 37 -192 348 -192 373 0 7 -4
10 -9 6 -12 -7 -8 53 7 115 6 25 16 70 22 101 7 37 19 64 35 79 24 23 26 23
202 16 223 -9 633 -34 838 -52 28 -2 115 -9 195 -15 80 -7 151 -16 158 -22 7
-5 12 -33 12 -66 1 -118 38 -297 90 -433 17 -43 30 -91 30 -108 0 -17 7 -47
16 -68 9 -20 26 -67 39 -104 34 -100 103 -191 192 -254 31 -21 71 -52 90 -69
33 -29 33 -32 34 -114 1 -83 2 -86 34 -118 19 -19 33 -37 32 -41 -1 -4 14 -9
33 -13 19 -3 53 -15 75 -26 64 -33 155 -38 252 -14 45 11 95 27 110 35 28 15
95 76 123 112 60 76 58 71 53 136 -2 35 -8 84 -14 109 -6 26 -11 71 -11 100 0
65 -6 91 -19 84 -5 -4 -9 -1 -9 5 0 6 -4 9 -9 5 -5 -3 -13 0 -17 6 -3 6 -1 14
5 18 7 5 -16 34 -62 79 -71 69 -75 70 -110 63 -20 -5 -38 -7 -40 -5 -2 2 -17
6 -33 8 -16 2 -47 11 -69 21 -43 19 -152 22 -169 5 -6 -6 -31 -10 -58 -10 -39
0 -49 4 -59 23 -7 12 -27 40 -46 62 -49 58 -52 62 -47 68 3 3 -2 22 -12 43 -9
22 -18 62 -20 91 -2 28 -8 62 -12 75 -10 27 -5 249 6 260 4 4 57 1 117 -7 61
-8 150 -15 198 -15 56 0 101 -6 125 -15 20 -9 46 -14 57 -11 11 2 73 -1 139
-8 139 -14 192 -11 175 10 -6 8 -18 14 -25 14 -8 0 -20 11 -26 25 -6 14 -14
21 -18 16 -3 -6 -16 -8 -28 -4 -12 3 -19 10 -15 16 4 7 0 8 -13 2 -28 -12 -67
-7 -76 10 -8 13 -55 14 -173 3 -31 -3 -119 13 -133 25 -13 10 -48 14 -170 19
-78 3 -102 18 -102 62 0 36 28 149 46 191 10 22 17 43 16 48 -1 4 3 7 8 7 6 0
10 7 10 16 0 20 51 138 62 142 4 2 24 38 45 80 27 54 58 97 110 149 40 40 76
73 80 73 4 0 22 14 39 31 20 20 43 32 60 32 32 0 91 32 104 58 6 10 27 26 48
35 20 10 44 23 53 31 11 9 48 14 120 14 69 0 106 4 111 12 5 8 38 12 95 12 79
0 92 3 131 28 42 27 42 28 26 52 -15 23 -43 37 -29 15 3 -5 2 -10 -4 -10 -5 0
-11 4 -13 10 -2 5 -16 11 -33 12 -16 1 -68 10 -115 20 -47 11 -105 24 -130 29
-25 5 -73 19 -108 31 l-64 22 54 13 c29 7 65 12 81 13 44 0 32 15 -47 56 l-75
38 -63 -13 c-35 -7 -89 -17 -121 -22 -33 -5 -71 -18 -86 -28 -15 -11 -55 -25
-89 -32 -34 -7 -59 -15 -57 -17 6 -6 -40 -42 -53 -42 -6 0 -12 -4 -14 -8 -1
-5 -46 -44 -98 -87 -93 -77 -196 -175 -184 -175 4 0 -9 -18 -29 -39 -19 -21
-38 -48 -42 -60 -3 -12 -10 -21 -14 -21 -5 0 -11 -13 -14 -30 -7 -34 -37 -42
-37 -10 0 11 -4 20 -10 20 -5 0 -10 10 -10 23 0 15 -17 34 -55 62 -31 22 -61
40 -67 40 -6 0 -24 12 -41 28 -20 18 -40 27 -62 27 -39 0 -96 -20 -77 -27 6
-3 12 -14 12 -25 0 -11 15 -38 33 -61 80 -100 117 -200 117 -316 0 -70 -26
-214 -45 -252 -8 -14 -12 -29 -8 -32 9 -9 -19 -69 -43 -93 -39 -40 -77 -53
-138 -48 -32 2 -61 6 -66 9 -5 3 -11 1 -15 -5 -4 -6 -10 -8 -15 -5 -4 3 -27 6
-50 7 -22 1 -43 5 -46 9 -2 4 -17 4 -32 0 -15 -4 -38 -6 -52 -4 -14 2 -47 6
-75 8 -27 3 -75 7 -105 10 -30 3 -86 8 -125 11 -38 3 -122 9 -185 15 -63 6
-167 13 -230 15 -139 6 -163 15 -154 58 11 50 107 217 138 240 15 12 41 46 56
76 32 64 124 177 151 185 10 3 43 32 75 65 68 70 118 94 180 84 60 -9 149 -65
234 -147 75 -72 118 -97 131 -75 4 6 1 24 -7 39 -17 34 -18 42 -1 33 6 -4 -22
26 -63 65 -75 72 -168 141 -190 141 -6 0 -8 5 -5 10 3 6 1 10 -6 10 -7 0 -9 3
-6 7 4 3 1 13 -5 21 -10 11 -9 17 6 27 25 19 172 18 208 -1 15 -8 37 -14 48
-14 25 0 97 -48 140 -93 17 -18 54 -67 82 -109 48 -72 72 -96 67 -65 -1 6 1
20 6 30 4 10 1 31 -9 51 -9 19 -16 43 -16 55 0 11 -6 24 -13 28 -8 4 -36 42
-64 83 -47 71 -165 200 -183 200 -5 0 -10 4 -12 9 -1 5 -32 24 -67 42 -35 19
-74 40 -87 47 -13 7 -52 15 -86 18 -35 3 -78 10 -96 16 -18 5 -49 7 -69 3 -35
-6 -138 -56 -157 -76 -6 -5 -18 -9 -28 -9 -10 0 -18 -4 -18 -10 0 -5 -8 -10
-17 -10 -10 0 -34 -15 -54 -33 -123 -111 -130 -115 -210 -118 -72 -3 -99 3
-99 21 0 15 182 194 241 238 151 109 350 149 537 105 86 -20 102 -12 75 35
-17 30 -36 42 -73 48 -8 1 -30 7 -47 12 -23 7 -33 7 -33 0 0 -7 -4 -7 -13 1
-8 6 -17 8 -20 4 -4 -3 -13 -1 -20 6 -8 6 -37 12 -64 12 -117 3 -299 -63 -428
-154 -78 -55 -237 -212 -260 -257 -10 -19 -23 -45 -29 -57 -6 -13 -14 -23 -18
-23 -5 0 -8 -5 -8 -10 0 -6 -11 -22 -24 -36 -13 -15 -33 -45 -44 -68 -22 -43
-45 -67 -97 -100 -33 -21 -94 -86 -95 -100 0 -5 -12 -25 -27 -45 -16 -20 -39
-56 -52 -81 -13 -25 -30 -53 -39 -63 -8 -9 -16 -25 -17 -35 -1 -9 -6 -26 -10
-37 -20 -51 -64 -172 -70 -193 -9 -31 -55 -77 -80 -79 -11 -1 -36 -4 -55 -7
-19 -2 -51 3 -70 11 -39 17 -120 33 -120 24 0 -3 -51 -7 -113 -7 -61 -1 -128
-2 -147 -3 -81 -3 -336 5 -345 11 -6 4 -42 1 -80 -6 -39 -7 -97 -11 -130 -8
-85 6 -206 5 -390 -2 -299 -11 -420 -17 -454 -23 -27 -5 -37 -1 -56 21 -18 21
-24 46 -33 138 -16 159 2 261 70 408 19 41 41 96 48 122 7 26 20 55 30 66 10
11 28 39 41 63 12 24 52 73 89 109 57 57 83 73 178 114 119 52 137 65 128 93
-9 28 -6 38 10 35 8 -2 14 1 14 6 0 5 17 12 38 16 20 3 60 10 87 15 28 5 52 5
55 2 3 -4 39 -4 80 0 84 8 312 -5 380 -21 51 -13 87 -38 153 -107 55 -57 136
-164 137 -179 0 -5 14 -23 31 -40 17 -16 42 -49 55 -74 14 -25 40 -71 59 -102
19 -32 32 -58 29 -58 -2 0 3 -12 13 -26 9 -15 18 -45 20 -68 2 -22 4 -47 5
-53 1 -7 7 -13 14 -13 6 0 14 -7 18 -15 6 -16 51 -21 60 -6 3 5 18 12 32 15
65 17 70 62 14 126 -22 24 -42 57 -46 72 -3 16 -10 26 -15 23 -5 -4 -6 0 -3 8
3 8 -2 17 -10 20 -9 4 -16 15 -16 24 0 10 -8 26 -17 35 -32 30 -113 148 -113
164 0 6 -64 103 -94 142 -6 9 -45 49 -86 91 -86 86 -156 126 -242 136 -32 4
-58 11 -58 15 0 7 -88 23 -131 25 -9 0 -31 16 -49 35 -32 34 -34 35 -105 33
-71 -2 -170 -26 -181 -44 -3 -5 -22 -9 -42 -9 -20 0 -64 -12 -97 -25 -33 -14
-72 -25 -87 -25 -35 0 -121 -22 -129 -33 -3 -4 -10 -7 -15 -6 -20 6 -109 -14
-133 -29 -14 -10 -22 -11 -18 -5 6 10 0 11 -24 6 -29 -6 -31 -5 -20 15 6 12
25 29 41 39 17 9 30 20 30 24 0 11 107 64 216 108 68 27 137 45 219 59 212 34
387 19 554 -48 127 -50 157 -55 171 -30 6 11 7 20 2 20 -5 0 -28 18 -52 40
-24 22 -49 40 -56 40 -7 0 -14 5 -16 11 -2 5 -10 11 -18 13 -8 1 -25 7 -37 14
-12 7 -35 12 -50 12 -16 0 -34 5 -39 10 -25 25 -310 44 -429 30z m-642 -542
c3 -7 -12 -29 -32 -48 -20 -20 -43 -46 -51 -59 -8 -13 -34 -48 -57 -79 -40
-51 -45 -60 -42 -78 0 -4 -4 -10 -9 -13 -6 -3 -14 -21 -19 -40 -5 -19 -15 -37
-22 -39 -10 -3 -11 0 -1 17 13 26 -4 56 -26 47 -10 -4 -12 3 -7 27 7 35 30 77
43 77 5 0 6 9 3 19 -5 21 37 89 79 128 23 22 87 50 120 52 9 0 18 -5 21 -11z
m3447 -83 c22 -14 40 -26 40 -28 0 -1 -11 -4 -25 -5 -14 -1 -38 -8 -53 -16
-15 -8 -46 -17 -67 -21 -22 -4 -48 -14 -57 -23 -10 -8 -18 -12 -18 -8 0 3 -11
-1 -25 -10 -22 -15 -53 -14 -117 2 -5 1 -14 2 -22 3 -17 1 -18 47 -2 60 7 6
36 23 66 40 49 26 65 29 148 30 82 1 97 -2 132 -24z m1613 -64 c15 -5 10 -11
-26 -29 -24 -12 -48 -22 -54 -22 -5 0 -38 -19 -74 -43 -35 -24 -79 -50 -96
-58 -18 -7 -33 -17 -33 -21 0 -5 -5 -8 -10 -8 -12 0 -113 -78 -118 -91 -7 -19
-30 -8 -34 16 -4 21 7 37 66 94 114 111 143 132 204 152 58 18 142 23 175 10z
m-5501 -133 c-14 -29 -32 -64 -39 -78 -8 -14 -21 -41 -29 -60 -8 -19 -19 -44
-24 -55 -5 -11 -12 -42 -16 -70 -4 -27 -9 -57 -11 -65 -31 -172 -53 -313 -53
-341 0 -24 -5 -39 -15 -43 -9 -3 -15 0 -15 9 0 8 -4 15 -10 15 -5 0 -10 13
-10 28 0 15 -5 33 -11 39 -12 12 -16 212 -5 282 3 25 13 52 21 61 8 9 15 21
15 27 0 13 64 133 96 181 45 66 101 121 125 122 4 0 -5 -24 -19 -52z m3525
-10 c9 -7 -8 -30 -65 -86 -43 -43 -91 -93 -106 -112 -16 -19 -57 -66 -91 -105
-89 -99 -99 -113 -133 -182 -27 -56 -67 -121 -82 -133 -4 -3 -10 -14 -14 -24
-7 -19 -7 -19 -20 0 -25 36 22 207 84 304 35 55 89 114 112 123 19 7 59 67 75
112 11 31 66 95 95 111 21 11 129 5 145 -8z m-377 -48 c0 -5 -6 -10 -13 -10
-7 0 -23 -18 -37 -40 -14 -22 -28 -40 -32 -40 -5 0 -8 -9 -8 -19 0 -11 -4 -21
-8 -23 -10 -3 -23 -27 -73 -128 -18 -36 -35 -66 -39 -68 -4 -1 -29 -56 -56
-122 -27 -66 -53 -118 -59 -116 -27 9 15 262 46 282 5 3 9 18 9 34 0 16 14 59
32 95 26 55 42 74 92 110 34 24 72 45 86 48 45 8 60 7 60 -3z m-2967 -26 c22
-4 36 -12 34 -18 -3 -6 -9 -10 -15 -9 -7 2 -9 -4 -5 -13 3 -9 2 -19 -4 -23 -5
-3 -20 -49 -32 -101 -13 -52 -30 -108 -38 -124 -13 -26 -18 -48 -27 -126 -2
-14 -9 -44 -15 -68 -7 -23 -13 -88 -14 -145 l-2 -102 -35 0 c-30 0 -35 3 -36
25 0 14 3 35 7 46 5 15 1 35 -13 60 -11 21 -21 49 -23 63 -2 20 33 208 60 316
2 11 8 41 13 66 5 25 16 56 25 69 9 14 17 31 17 39 0 20 30 51 49 51 9 0 33
-3 54 -6z m4730 -97 c-39 -86 -70 -139 -93 -162 l-27 -26 -1 28 c0 16 10 38
24 52 13 13 24 32 24 42 0 11 7 19 18 20 9 0 12 3 6 5 -19 8 -5 39 24 56 32
20 39 16 25 -15z m-2198 -267 c-9 -14 -14 -63 -20 -185 -3 -60 -9 -113 -15
-119 -5 -5 -25 -11 -43 -13 -30 -3 -36 1 -46 25 -13 30 2 106 33 174 8 18 18
44 21 58 8 27 55 79 68 72 4 -2 5 -7 2 -12z m295 -273 c0 -7 -9 -20 -20 -30
-19 -16 -20 -16 -20 6 0 13 3 27 7 30 11 12 33 8 33 -6z m-315 -179 c26 -24
32 -40 41 -118 3 -25 10 -50 15 -56 5 -6 11 -60 14 -120 8 -211 31 -312 111
-481 49 -105 51 -119 20 -125 -52 -10 -139 61 -186 152 -16 30 -40 71 -54 89
-33 45 -66 132 -66 176 0 19 -4 35 -8 35 -4 0 -18 56 -31 124 -19 99 -22 143
-18 227 3 57 6 105 6 106 2 3 55 10 93 12 25 1 45 -6 63 -21z m-2630 -68 c3
-5 -1 -10 -9 -10 -9 0 -16 5 -16 10 0 6 4 10 9 10 6 0 13 -4 16 -10z m4675
-227 c-1 -54 1 -111 5 -126 6 -21 4 -27 -6 -25 -24 5 -32 41 -30 133 3 78 11
115 28 115 3 0 4 -44 3 -97z m-4323 30 c8 -21 20 -49 25 -63 7 -18 11 -21 17
-11 9 14 39 -30 59 -88 7 -19 20 -43 29 -53 20 -22 11 -35 -12 -17 -46 39 -66
68 -71 102 -4 20 -9 37 -13 37 -12 0 -49 66 -55 98 -7 43 1 41 21 -5z m4320
-215 c-3 -8 -6 -5 -6 6 -1 11 2 17 5 13 3 -3 4 -12 1 -19z m-4050 -108 c3 -11
10 -20 15 -20 5 0 6 -4 3 -10 -10 -16 -30 -12 -56 11 -19 17 -21 22 -9 29 24
15 41 11 47 -10z m46 -244 c47 -25 82 -47 79 -50 -9 -10 -60 -7 -67 4 -3 6
-17 10 -30 10 -32 0 -75 19 -103 46 -21 20 -22 23 -5 27 34 9 42 7 126 -37z
m4427 -36 c-8 -5 -18 -6 -24 -3 -5 4 -1 10 10 13 24 9 34 2 14 -10z m221 -41
c25 -18 29 -27 27 -60 -1 -28 -6 -39 -18 -39 -24 0 -52 39 -57 81 -7 45 4 49
48 18z m-511 -79 c0 -5 -2 -10 -4 -10 -3 0 -8 5 -11 10 -3 6 -1 10 4 10 6 0
11 -4 11 -10z m-3658 -251 c-5 -34 -15 -41 -61 -46 -49 -5 -47 9 6 50 42 32
59 30 55 -4z m3963 -97 c16 -12 55 -70 55 -83 0 -13 -60 -5 -70 10 -3 5 -14
10 -25 12 -14 3 -21 13 -23 37 -3 29 -1 32 25 32 15 0 33 -4 38 -8z m195 -32
c0 -5 -4 -10 -10 -10 -5 0 -10 5 -10 10 0 6 5 10 10 10 6 0 10 -4 10 -10z m49
-46 c14 -12 -19 -1 -35 12 -18 14 -18 14 6 3 14 -6 27 -13 29 -15z"/>
<path d="M6475 14757 c-17 -13 -17 -14 4 -20 28 -7 48 0 55 19 7 18 -33 19
-59 1z"/>
<path d="M10810 14154 c0 -12 -6 -15 -21 -11 -24 6 -59 -11 -59 -30 0 -6 22
-37 48 -67 27 -30 58 -74 70 -98 78 -159 90 -500 22 -638 -25 -51 -33 -105
-17 -118 35 -30 105 16 117 76 4 19 19 34 55 53 53 28 85 76 91 134 1 17 6 66
10 110 10 105 6 162 -12 197 -8 15 -17 47 -20 71 -8 56 -40 116 -67 126 -12 5
-38 28 -57 51 -47 56 -147 160 -154 160 -3 0 -6 -7 -6 -16z"/>
<path d="M10420 13122 c0 -4 10 -13 21 -21 18 -11 23 -11 30 1 5 8 2 15 -9 20
-24 9 -42 9 -42 0z"/>
<path d="M11543 12717 c-14 -30 7 -78 46 -108 81 -61 181 -143 218 -177 41
-38 63 -55 183 -142 81 -60 102 -50 67 30 -18 42 -107 150 -130 159 -12 4 -26
17 -104 89 -122 113 -180 152 -225 152 -13 0 -29 5 -34 10 -7 7 -14 3 -21 -13z"/>
<path d="M11466 12527 c-15 -15 -27 -43 -33 -73 -10 -61 -9 -1158 2 -1199 4
-16 8 -54 8 -82 1 -29 5 -53 10 -53 4 0 6 4 2 9 -3 5 -1 12 4 15 5 3 7 15 4
25 -3 10 3 32 12 47 9 16 14 20 10 10 -4 -14 -2 -16 7 -9 7 5 19 8 26 7 6 -1
16 -2 22 -3 5 0 27 -16 47 -33 21 -18 47 -38 58 -45 11 -6 19 -17 17 -25 -3
-9 0 -10 8 -2 11 11 100 -3 116 -19 4 -4 17 -7 28 -7 19 0 21 6 20 54 -1 29
-3 57 -6 62 -10 18 11 334 23 334 16 0 21 -23 26 -118 22 -473 -5 -1408 -53
-1774 -3 -22 0 -39 7 -44 9 -5 10 -2 6 9 -3 9 -2 19 3 22 13 8 13 -45 1 -64
-6 -9 -6 -24 0 -38 13 -34 13 -79 4 -338 -9 -259 -9 -269 1 -343 4 -30 2 -77
-5 -110 -16 -78 -25 -205 -24 -344 0 -65 -3 -118 -8 -118 -4 0 -8 -24 -8 -52
-1 -29 -4 -88 -7 -130 -4 -62 -2 -81 12 -103 9 -14 12 -25 6 -23 -8 2 -13 -29
-16 -97 -2 -55 -8 -111 -13 -125 -5 -14 -8 -98 -7 -188 1 -89 -3 -165 -7 -168
-5 -3 -7 -10 -3 -15 3 -6 -1 -24 -9 -42 -20 -44 -33 -223 -17 -242 15 -18 16
-67 5 -160 -4 -38 -7 -79 -7 -90 1 -10 -4 -25 -9 -32 -8 -8 -7 -23 1 -49 14
-43 7 -128 -15 -181 -8 -19 -15 -53 -15 -75 0 -42 -7 -95 -46 -333 -14 -82
-31 -190 -39 -240 -8 -49 -21 -121 -29 -160 -56 -288 -88 -428 -104 -471 -11
-27 -22 -69 -26 -94 -6 -41 -38 -155 -86 -305 -10 -33 -24 -89 -30 -125 -7
-36 -25 -103 -41 -149 -16 -46 -29 -97 -29 -113 0 -16 -8 -54 -19 -86 -10 -31
-22 -70 -26 -87 -5 -16 -9 -34 -11 -40 -1 -5 -14 -39 -29 -75 -14 -36 -30 -85
-36 -110 -6 -25 -32 -106 -58 -180 -27 -74 -60 -178 -75 -230 -33 -115 -138
-440 -172 -530 -14 -36 -27 -87 -30 -114 -2 -26 -14 -66 -25 -87 -19 -39 -19
-102 1 -114 4 -2 5 -16 2 -30 -2 -14 0 -25 6 -25 6 0 17 -2 24 -5 8 -3 23 3
33 13 11 10 29 23 39 29 21 12 24 25 30 118 3 33 8 94 12 135 4 41 7 80 5 87
-1 6 3 14 8 18 6 3 8 12 5 19 -3 8 -1 17 5 21 6 3 11 14 11 23 0 9 9 28 19 41
10 13 16 32 14 42 -3 11 0 19 6 19 7 0 10 4 6 9 -3 5 2 17 11 25 11 12 12 16
2 16 -10 1 -9 4 2 13 8 7 16 19 17 27 1 8 6 29 12 45 50 146 62 183 60 191 -1
5 5 26 14 46 10 21 17 47 17 58 0 12 5 18 10 15 6 -3 10 1 10 9 0 8 5 27 12
43 6 15 10 32 9 37 -1 5 1 16 5 25 4 9 8 21 9 27 2 6 10 27 18 45 8 19 23 61
32 94 10 33 21 65 24 70 27 40 58 172 64 275 2 25 16 69 30 98 15 28 24 52 21
52 -3 0 1 10 9 23 17 26 44 109 57 177 17 86 32 145 41 156 5 6 10 24 12 40 2
17 7 36 12 43 4 8 9 44 10 81 1 37 9 81 18 98 8 18 19 62 22 99 4 38 12 77 18
88 6 11 12 22 12 25 0 3 9 19 18 37 9 18 16 36 16 40 -1 4 0 15 4 23 3 8 8 38
11 65 7 72 14 98 27 106 6 4 9 11 6 16 -4 6 -2 25 4 44 5 19 12 54 14 79 6 60
16 103 25 115 13 18 22 97 22 208 1 59 4 107 7 107 4 0 7 9 7 20 0 11 -4 20
-9 20 -5 0 -2 6 5 14 13 13 21 80 21 181 0 22 5 44 11 48 8 6 7 10 -1 14 -19
7 -16 23 3 16 16 -6 15 4 -3 53 -2 7 1 15 8 20 9 5 10 2 5 -12 -6 -15 -5 -16
5 -7 10 10 12 33 9 138 0 11 1 54 3 95 2 43 0 78 -6 82 -6 4 -5 20 4 45 8 21
15 55 14 75 0 21 3 38 6 38 3 0 4 12 2 28 -2 15 2 51 10 80 8 29 11 55 7 57
-8 5 -6 55 4 95 3 14 7 48 10 77 3 43 2 51 -11 46 -13 -5 -13 -3 -3 16 6 13 9
29 6 37 -3 8 -1 14 3 14 5 0 12 7 15 16 5 14 4 15 -9 4 -13 -11 -14 -8 -9 21
3 19 10 46 14 62 9 26 -3 40 -13 15 -3 -7 -2 7 1 31 4 32 2 42 -6 37 -8 -5
-10 -2 -6 8 4 9 1 16 -6 16 -9 0 -10 11 -5 36 4 23 3 34 -4 30 -16 -10 -4 185
13 202 9 10 16 11 20 3 4 -6 2 -11 -3 -11 -6 0 -11 -5 -11 -12 0 -18 26 12 35
40 6 22 -8 31 -20 12 -13 -20 -24 -10 -15 14 5 13 9 43 9 67 1 72 2 79 12 79
7 0 7 30 -2 50 -3 9 3 105 7 110 3 2 8 -1 12 -7 8 -12 6 99 -2 171 -3 25 0 58
6 73 6 16 13 48 14 73 1 24 7 46 13 48 7 2 11 50 11 135 0 73 4 177 9 233 5
55 6 132 3 169 -4 50 -2 66 6 61 8 -5 11 2 9 23 -2 17 -6 33 -8 35 -2 2 -1 46
2 98 3 51 5 141 4 200 -1 59 1 105 5 103 4 -3 11 2 14 11 3 8 2 13 -3 9 -13
-8 -25 117 -17 183 14 115 17 162 20 379 2 121 6 226 10 231 3 6 1 14 -5 18
-11 7 -5 210 8 263 9 38 10 64 1 88 -4 12 -4 24 0 27 4 2 5 69 2 148 -3 78 -2
177 3 218 10 75 14 419 7 559 -4 93 -39 168 -71 151 -10 -6 -19 -19 -19 -30 0
-10 -5 -22 -11 -25 -6 -4 -8 -14 -4 -22 3 -9 -1 -23 -9 -32 -8 -9 -16 -29 -19
-46 -4 -29 -11 91 -8 128 1 9 -2 17 -6 17 -5 0 -8 19 -7 43 2 41 -21 97 -39
97 -5 0 -5 6 1 13 5 6 12 29 15 50 6 43 -17 67 -58 60 -26 -6 -28 -30 -6 -87
7 -17 8 -33 2 -40 -5 -6 -12 -35 -16 -63 -4 -29 -10 -53 -15 -53 -15 0 -30 89
-30 177 0 98 -12 127 -55 135 -39 8 -46 -29 -61 -312 -3 -63 -9 -119 -14 -124
-5 -4 -19 0 -32 9 -22 17 -23 24 -21 114 1 53 4 146 8 206 12 206 13 197 -17
228 l-27 29 -25 -25z m304 -956 c9 -347 7 -366 -41 -315 -22 23 -24 34 -25
127 -1 56 -2 107 -4 112 -6 25 -4 81 3 86 4 3 4 26 -2 50 -11 53 -7 119 9 129
8 5 9 22 5 52 -5 30 -3 48 4 53 6 3 9 11 5 16 -3 6 -3 22 1 37 l7 27 15 -29
c12 -24 17 -92 23 -345z m-236 289 c3 -17 1 -41 -4 -55 -6 -16 -6 -25 0 -25 6
0 10 -7 10 -15 0 -8 -5 -15 -10 -15 -7 0 -7 -6 -1 -17 5 -10 12 -67 16 -127 7
-102 10 -111 36 -137 19 -19 29 -40 32 -73 3 -25 2 -48 -3 -51 -5 -3 -27 12
-49 33 -35 33 -41 45 -41 80 0 22 -7 47 -15 55 -8 8 -11 17 -8 21 3 3 7 61 8
128 4 195 7 228 15 228 4 0 10 -14 14 -30z m341 -208 c-11 -11 -28 18 -28 45
0 15 7 42 14 58 14 29 14 29 17 -34 2 -35 0 -66 -3 -69z m-9 -69 c-10 -10 -19
5 -10 18 6 11 8 11 12 0 2 -7 1 -15 -2 -18z"/>
<path d="M4766 12501 c-4 -6 -14 -7 -23 -4 -13 5 -15 2 -10 -11 4 -10 7 -24 7
-33 0 -19 25 -11 25 8 0 8 4 20 9 27 4 7 6 16 3 18 -3 3 -8 1 -11 -5z"/>
<path d="M4660 12223 c0 -45 15 -49 28 -8 6 20 6 35 1 35 -5 0 -9 -6 -9 -12 0
-9 -4 -8 -10 2 -7 11 -10 7 -10 -17z"/>
<path d="M4582 12053 c-4 -10 -8 -25 -7 -33 1 -8 -4 -21 -9 -29 -9 -12 -7 -13
7 -8 16 6 16 4 3 -28 -11 -25 -11 -35 -3 -39 9 -3 9 -5 0 -5 -6 -1 -9 -10 -6
-21 7 -25 11 -25 47 4 16 14 26 29 21 35 -4 7 -1 18 5 26 17 20 4 101 -16 109
-25 9 -33 7 -42 -11z"/>
<path d="M4805 12049 c4 -5 -3 -9 -14 -9 -41 0 -67 -84 -36 -115 6 -5 33 -11
60 -12 28 -2 87 -5 133 -9 61 -4 82 -2 82 7 0 17 -77 87 -120 109 -44 22 -112
42 -105 29z"/>
<path d="M6777 11854 c-2 -2 -34 -6 -73 -9 -93 -8 -98 -10 -134 -55 -31 -39
-31 -40 -12 -60 21 -22 34 -22 120 6 45 15 140 17 234 5 48 -6 58 -4 61 9 6
31 -6 62 -28 70 -13 5 -25 14 -27 21 -3 8 -27 13 -71 14 -37 1 -68 0 -70 -1z"/>
<path d="M8140 11790 c0 -6 -17 -10 -37 -10 -21 0 -67 -9 -103 -20 -36 -11
-76 -20 -91 -20 -30 0 -77 -20 -83 -36 -8 -21 32 -74 57 -74 45 0 212 29 252
44 22 8 58 15 81 16 61 0 79 18 68 66 -9 37 -12 39 -48 39 -21 0 -40 -3 -42
-7 -3 -4 -16 -3 -29 2 -16 6 -25 6 -25 0z"/>
<path d="M8912 11719 c-53 -7 -77 -23 -100 -66 -23 -42 1 -51 138 -56 69 -3
144 -9 168 -15 34 -7 46 -7 58 5 16 17 18 29 4 38 -5 3 -10 14 -10 24 0 34
-49 53 -190 75 -8 1 -39 -1 -68 -5z"/>
<path d="M10340 11610 c-57 -12 -90 -28 -131 -68 -50 -47 -65 -94 -38 -118 18
-16 21 -16 62 0 25 9 56 30 71 46 35 40 86 40 190 -1 88 -34 112 -29 82 16
-10 15 -15 33 -12 41 3 9 -2 18 -12 21 -9 4 -22 12 -29 17 -7 6 -20 17 -29 25
-10 8 -36 16 -58 18 -23 2 -45 5 -51 7 -5 1 -26 -1 -45 -4z"/>
<path d="M9594 11584 c-14 -8 -33 -14 -40 -14 -20 0 -19 -66 2 -74 24 -9 157
-7 173 3 11 7 8 17 -15 52 -24 35 -36 44 -61 45 -18 1 -44 -5 -59 -12z"/>
<path d="M4320 11070 c0 -5 5 -10 11 -10 5 0 7 5 4 10 -3 6 -8 10 -11 10 -2 0
-4 -4 -4 -10z"/>
<path d="M4307 11043 c-4 -3 -7 -13 -7 -22 1 -13 3 -13 11 2 11 19 8 33 -4 20z"/>
<path d="M7778 10830 c-19 -12 -128 -21 -142 -13 -24 16 -219 1 -301 -22 -57
-16 -257 -47 -263 -40 -4 4 -81 -24 -140 -51 -19 -9 -66 -25 -105 -36 -39 -10
-76 -23 -82 -27 -5 -5 -31 -12 -57 -15 -27 -4 -48 -10 -48 -14 0 -4 -15 -12
-32 -19 -100 -35 -161 -61 -181 -78 -12 -11 -24 -18 -26 -16 -2 1 -7 -1 -10
-6 -3 -4 -31 -17 -61 -27 -30 -10 -65 -25 -77 -32 -12 -8 -29 -14 -38 -14 -8
0 -15 -4 -15 -10 0 -5 -8 -10 -18 -10 -10 0 -29 -10 -42 -22 -14 -13 -26 -21
-27 -18 -1 3 -13 -4 -25 -15 -13 -11 -37 -27 -55 -35 -18 -8 -49 -31 -70 -50
-21 -19 -49 -40 -63 -46 -14 -7 -42 -27 -64 -45 -21 -19 -55 -49 -76 -66 -21
-18 -40 -33 -44 -33 -31 0 -203 -153 -220 -195 -3 -8 -10 -15 -15 -15 -14 0
-151 -136 -206 -205 -27 -33 -66 -78 -88 -100 -68 -68 -95 -112 -102 -166 -4
-27 -14 -57 -23 -66 -10 -9 -16 -18 -14 -20 7 -10 0 -23 -10 -17 -7 4 -8 3 -4
-4 4 -7 0 -26 -8 -44 -39 -85 -77 -226 -81 -307 -2 -46 -7 -86 -10 -89 -10
-11 -5 -23 8 -16 10 6 10 4 0 -7 -15 -15 -18 -105 -4 -114 5 -3 15 -22 21 -43
15 -50 113 -241 121 -237 3 3 34 -19 69 -47 l63 -51 85 7 c48 4 93 13 105 21
16 11 50 15 127 15 122 0 162 14 234 80 59 54 146 235 146 303 0 25 55 138 81
166 10 11 19 24 19 28 0 5 19 31 43 58 41 47 117 164 117 180 0 3 14 26 31 51
16 24 37 61 46 82 41 99 162 236 308 349 44 34 100 80 125 102 25 22 52 43 61
46 15 5 33 44 25 53 -2 2 -26 -12 -53 -30 -87 -61 -110 -74 -94 -55 12 15 11
17 -3 17 -9 0 -16 4 -16 9 0 14 -41 0 -47 -15 -9 -23 -23 -16 -23 11 0 43 99
126 235 195 66 34 125 66 130 70 6 5 28 10 50 12 22 2 51 11 65 20 41 27 229
89 330 109 52 11 160 26 240 34 80 9 152 18 162 21 16 5 34 35 20 33 -30 -5
-62 3 -62 15 0 45 -92 53 -265 22 -44 -7 -105 -13 -135 -12 -73 1 -78 13 -79
176 0 101 2 130 14 140 22 18 119 35 200 35 63 0 70 -2 68 -19 -1 -11 9 -33
23 -49 13 -16 27 -46 30 -67 9 -55 39 -99 80 -116 38 -16 62 -11 44 11 -7 8
-7 21 0 39 6 17 6 35 0 51 -5 14 -7 25 -4 25 2 0 -1 10 -7 23 -7 12 -14 32
-15 44 -2 13 -5 32 -9 43 -8 27 25 35 145 35 94 -1 175 -18 164 -36 -7 -12 33
-77 56 -89 28 -15 60 -12 60 5 0 8 5 15 11 15 5 0 8 4 5 8 -3 5 2 18 10 30 19
28 86 29 159 4 92 -33 92 -32 72 -94 -9 -30 -17 -62 -17 -72 0 -9 -9 -35 -20
-56 -25 -50 -31 -127 -10 -140 27 -17 49 -11 89 25 54 49 63 46 60 -18 -2 -35
3 -61 13 -75 14 -21 17 -21 44 -7 32 15 62 80 66 143 1 17 5 32 9 32 3 0 4 11
2 24 -4 17 1 27 15 35 12 6 24 20 27 32 7 20 8 20 24 5 11 -12 13 -19 4 -24
-7 -4 -9 -20 -5 -42 10 -66 6 -315 -7 -386 -11 -56 -11 -75 -1 -93 9 -17 15
-20 23 -12 6 6 18 11 27 11 22 0 57 79 67 150 4 30 8 60 9 65 1 6 2 18 3 28 0
9 6 17 12 17 13 0 4 -362 -12 -423 -16 -65 -9 -121 17 -125 11 -2 28 6 39 18
20 22 54 27 57 8 0 -7 2 -66 3 -130 1 -108 3 -119 28 -155 33 -48 56 -104 67
-162 12 -63 61 -222 81 -263 5 -10 9 -23 9 -30 1 -7 11 -26 24 -42 25 -30 46
-28 46 5 0 10 4 19 9 19 17 0 81 -70 81 -88 0 -50 -297 -378 -425 -470 -33
-23 -73 -55 -90 -70 -25 -23 -171 -102 -188 -102 -3 0 -26 -14 -51 -30 -58
-39 -215 -113 -334 -156 -52 -19 -102 -39 -112 -44 -13 -7 -22 -4 -38 13 -22
23 -61 103 -62 125 0 7 -9 31 -19 55 -38 86 -42 80 67 126 52 22 79 28 90 22
9 -5 32 -42 52 -82 35 -73 51 -86 91 -73 26 7 31 62 13 118 -9 28 -22 58 -29
66 -7 8 -12 31 -11 52 1 30 8 42 41 68 52 41 93 63 110 57 7 -3 15 -20 19 -39
8 -42 58 -149 77 -164 21 -16 45 -23 56 -16 20 12 24 80 8 119 -8 19 -15 44
-15 55 0 10 -7 30 -16 43 -9 13 -13 29 -10 34 4 5 0 13 -8 18 -18 10 -8 68 18
108 20 30 91 79 104 71 5 -3 15 -32 21 -65 14 -71 37 -121 57 -122 8 -1 20 -2
27 -3 22 -2 67 60 67 93 0 17 -5 31 -12 31 -6 0 -9 3 -5 6 3 3 -5 26 -19 51
-13 25 -24 54 -24 64 0 11 -4 19 -9 19 -4 0 -7 24 -6 53 1 53 45 167 65 167 5
0 34 -51 64 -114 59 -122 94 -160 135 -149 20 5 22 11 18 52 -5 48 -13 70 -47
145 -11 25 -20 52 -20 61 0 8 -4 23 -9 33 -12 23 -41 153 -41 184 0 35 -20 88
-33 89 -68 8 -62 14 -113 -127 -29 -81 -71 -156 -123 -219 -9 -11 -30 -46 -46
-78 -23 -45 -63 -90 -174 -195 -79 -75 -148 -141 -155 -147 -35 -30 -312 -208
-374 -239 -39 -20 -110 -58 -155 -84 -46 -27 -128 -68 -183 -91 -54 -24 -132
-59 -172 -78 -40 -19 -84 -36 -97 -37 -14 0 -25 -4 -25 -9 0 -4 -3 -6 -7 -5
-15 3 -63 -14 -63 -23 0 -13 -42 -11 -73 4 -15 7 -27 20 -27 31 0 10 -18 71
-39 135 -44 129 -56 188 -78 391 -10 93 -5 413 7 444 4 13 14 94 21 180 10
133 10 159 -1 166 -8 5 -18 6 -22 4 -4 -3 -8 2 -8 10 0 8 -9 20 -20 26 -12 6
-20 21 -20 36 0 25 47 181 61 199 4 6 14 39 23 74 9 36 22 71 28 78 19 23 -4
34 -55 27 -30 -4 -47 -12 -47 -20 0 -8 -4 -14 -9 -14 -9 0 -54 -84 -57 -109
-2 -7 -11 -34 -22 -60 -11 -25 -27 -77 -36 -116 -9 -38 -24 -97 -33 -130 -8
-33 -17 -87 -19 -120 -3 -33 -7 -78 -11 -100 -4 -22 -7 -166 -7 -320 -1 -154
-5 -286 -10 -294 -6 -9 -5 -12 0 -8 6 3 9 -31 8 -89 -2 -55 2 -94 7 -94 6 0 6
-7 1 -17 -5 -10 -8 -34 -5 -53 13 -102 34 -239 42 -270 15 -68 1 -110 -38
-109 -86 2 -185 -29 -175 -56 5 -11 2 -14 -10 -9 -9 3 -16 10 -16 15 0 10 -31
12 -54 3 -9 -3 -16 -11 -16 -16 0 -6 6 -5 15 2 18 15 45 6 45 -16 0 -11 -6
-15 -20 -11 -11 3 -23 1 -26 -4 -3 -5 -10 -7 -15 -4 -5 4 -9 2 -9 -3 0 -6 -7
-13 -16 -16 -9 -4 -13 -2 -8 5 11 19 -19 29 -37 13 -13 -12 -22 -13 -37 -5
-11 6 -22 7 -26 4 -3 -3 -6 1 -6 10 0 19 -34 30 -76 25 -35 -4 -69 -60 -54
-89 25 -46 -49 -52 -430 -35 -107 4 -201 8 -207 7 -7 0 -21 -1 -30 -2 -43 -2
-63 -21 -63 -61 0 -25 5 -41 15 -44 8 -3 17 -15 20 -25 4 -13 13 -18 23 -15 9
3 43 6 74 7 32 1 55 5 53 9 -2 4 15 4 40 0 24 -4 72 -3 107 2 34 4 86 5 113 2
28 -2 75 -7 105 -11 109 -11 623 -6 685 7 124 26 155 15 155 -55 0 -22 7 -67
15 -99 9 -32 16 -69 17 -82 1 -13 5 -24 9 -24 3 0 9 -22 13 -50 4 -27 11 -50
16 -50 6 0 10 -8 10 -19 0 -10 8 -40 19 -67 10 -27 28 -83 40 -124 37 -128 42
-142 91 -245 26 -55 58 -122 70 -150 12 -27 28 -63 36 -79 8 -16 14 -34 14
-40 0 -6 13 -27 28 -46 16 -19 36 -51 46 -70 10 -19 31 -57 46 -85 16 -27 37
-66 47 -85 21 -42 21 -42 76 -105 44 -50 247 -255 253 -255 3 0 33 -27 94 -85
20 -18 42 -35 50 -37 7 -2 22 -10 32 -18 10 -8 22 -15 26 -16 4 0 19 -6 35
-12 15 -6 43 -13 63 -16 20 -2 39 -8 43 -13 12 -19 48 -32 72 -26 13 3 20 2
16 -3 -4 -4 3 -14 15 -22 23 -13 23 -13 1 -9 -26 6 -39 -19 -21 -41 27 -33 64
-61 82 -62 12 0 16 -5 12 -16 -3 -9 -2 -12 5 -9 5 4 16 1 24 -5 8 -7 15 -9 15
-4 0 5 4 4 8 -1 15 -21 89 -65 109 -65 12 0 25 -4 28 -10 3 -5 25 -10 48 -10
23 0 55 -7 70 -15 58 -30 374 -2 459 41 26 13 58 24 72 24 14 0 28 5 31 10 3
6 14 10 23 10 16 0 48 16 160 78 51 28 123 100 170 172 20 30 71 92 114 137
43 46 77 86 76 90 0 5 11 33 25 63 27 57 56 182 53 234 -1 22 -9 33 -36 47
-46 25 -69 24 -74 -3 -2 -13 -10 -54 -17 -93 -14 -79 -38 -144 -62 -163 -9 -8
-37 -17 -63 -20 -26 -4 -47 -10 -46 -14 1 -5 2 -24 2 -44 0 -19 4 -33 9 -30
13 8 20 -16 14 -46 -5 -28 -87 -105 -176 -168 -28 -19 -62 -46 -77 -60 -48
-44 -221 -120 -275 -120 -31 0 -69 30 -56 43 19 19 12 35 -39 83 -33 31 -64
74 -90 128 -23 44 -45 88 -50 96 -5 8 -15 29 -23 45 -7 17 -27 55 -43 85 -75
139 -97 221 -60 228 10 2 16 0 12 -6 -3 -5 5 -7 19 -4 14 2 31 0 38 -6 6 -5
37 -10 67 -11 86 -2 176 -15 192 -29 9 -7 18 -37 22 -67 6 -58 75 -211 122
-272 13 -17 24 -36 24 -42 0 -15 110 -131 125 -131 19 0 55 49 55 73 0 12 -13
35 -29 52 -34 34 -95 139 -104 178 -4 14 -13 32 -20 39 -23 24 -59 114 -55
139 3 23 6 24 113 31 61 4 121 9 135 11 68 13 90 21 90 31 0 7 28 20 61 31 73
21 101 24 111 10 4 -5 8 0 8 13 0 13 -6 22 -16 22 -8 0 -12 5 -9 10 4 6 11 7
17 4 7 -4 8 -2 4 4 -10 16 -25 15 -60 -3 -15 -8 -41 -15 -56 -15 -16 0 -41 -5
-57 -11 -44 -17 -141 -19 -383 -8 -264 12 -271 13 -330 45 -24 14 -61 26 -81
28 -40 3 -95 42 -116 81 -12 22 -18 23 -92 19 l-78 -4 -56 48 c-30 26 -72 58
-93 72 -77 51 -102 83 -108 136 -4 27 -12 60 -19 74 -11 21 -19 24 -52 21 -22
-1 -45 -10 -51 -19 -11 -14 -14 -14 -35 0 -13 8 -49 43 -79 78 -30 34 -67 74
-82 89 -64 65 -118 180 -118 252 0 29 -41 79 -64 79 -8 0 -16 4 -18 8 -1 5
-16 15 -33 23 -49 23 -117 170 -120 258 0 7 -15 28 -34 46 -31 31 -33 35 -17
50 9 9 16 20 16 24 0 4 28 13 63 20 34 7 91 22 126 32 35 10 78 19 96 19 33 0
125 24 157 41 10 5 31 9 47 9 16 0 53 11 82 24 30 13 79 27 109 30 30 4 78 16
105 25 28 10 90 31 139 47 48 15 127 47 174 71 47 24 91 43 98 43 6 0 51 24
100 53 49 29 114 63 144 76 31 12 68 33 84 48 15 14 62 53 104 86 93 73 290
273 389 394 41 50 95 131 124 188 28 55 57 107 63 115 7 8 18 35 25 60 8 25
18 59 23 75 26 86 57 475 38 475 -4 0 -10 33 -14 72 -4 47 -17 96 -36 138 -16
36 -31 72 -32 80 -2 8 -5 17 -8 20 -3 3 -21 35 -39 73 -19 37 -38 67 -42 67
-4 0 -11 10 -16 23 -16 42 -58 107 -70 107 -7 0 -13 4 -13 9 0 5 -49 58 -109
117 -137 137 -156 154 -172 154 -7 0 -9 3 -6 7 10 9 -133 99 -206 129 -34 15
-64 29 -67 33 -8 10 -60 42 -60 37 0 -3 -39 15 -86 39 -47 25 -90 42 -95 39
-6 -3 -15 -1 -22 4 -12 10 -80 34 -107 38 -55 9 -168 38 -185 47 -16 9 -112
17 -328 27 -9 1 -15 5 -12 11 8 11 5 11 -17 -1z m-684 -247 c3 -10 8 -84 11
-165 l5 -148 -24 -6 c-14 -3 -27 -12 -30 -20 -3 -8 -15 -14 -27 -14 -13 0 -30
-6 -38 -14 -9 -8 -46 -22 -83 -32 -87 -23 -98 -15 -92 64 3 31 10 83 15 116 6
32 8 75 4 96 -6 38 -7 38 -36 28 -16 -6 -38 -8 -48 -5 -15 3 -21 -3 -26 -27
-4 -17 -7 -34 -6 -38 0 -4 -3 -18 -9 -32 -9 -25 -25 -174 -22 -211 1 -11 2
-29 2 -40 1 -19 -24 -45 -76 -81 -28 -19 -84 -26 -90 -11 -5 14 20 217 38 306
12 54 20 69 52 97 22 19 49 34 61 34 12 0 25 3 28 7 4 3 30 14 58 24 29 10 60
26 70 35 24 21 142 52 206 53 41 1 53 -3 57 -16z m1718 -203 c13 -6 29 -23 35
-37 13 -28 8 -47 -6 -24 -7 10 -13 10 -29 2 -32 -17 -52 -4 -52 35 0 37 12 42
52 24z m-2388 -45 c4 -14 4 -51 0 -83 -3 -31 -7 -73 -8 -92 -1 -19 -6 -42 -11
-50 -5 -8 -9 -58 -9 -111 l-1 -97 -36 -35 c-20 -20 -40 -33 -43 -30 -16 16 -1
146 39 358 11 57 47 165 55 165 4 0 11 -11 14 -25z m2645 -174 c23 -25 63 -67
87 -92 24 -26 44 -52 44 -58 0 -6 13 -25 29 -43 71 -81 149 -269 171 -410 11
-68 13 -112 8 -123 -6 -9 -7 -23 -4 -31 3 -8 1 -14 -4 -14 -11 0 -41 60 -35
71 3 4 1 16 -4 26 -6 10 -17 43 -27 73 -25 83 -53 127 -83 133 -59 12 -64 -27
-21 -168 17 -54 30 -112 30 -130 0 -30 9 -58 61 -187 23 -57 24 -122 3 -185
-19 -56 -26 -66 -45 -58 -18 7 -59 78 -59 102 0 10 -11 52 -24 93 -13 41 -34
109 -46 150 -13 41 -27 78 -33 81 -6 4 -5 9 1 13 7 4 7 17 2 38 -5 17 -6 36
-3 42 4 6 8 17 8 26 18 190 27 480 15 480 -4 0 -6 11 -5 25 3 19 -1 25 -16 25
-10 0 -19 4 -19 8 0 14 -60 12 -61 -1 0 -7 -3 -41 -5 -77 -3 -38 -11 -71 -19
-80 -13 -12 -15 -2 -15 86 0 93 -2 102 -24 123 -15 14 -26 19 -31 12 -9 -16
-25 -14 -25 3 0 8 -5 16 -11 18 -7 2 -11 17 -11 33 4 147 1 144 70 88 31 -25
77 -67 101 -92z m-2834 77 c-18 -85 -35 -224 -40 -345 -8 -160 -1 -253 20
-253 13 0 31 -36 27 -52 -1 -5 2 -8 8 -8 6 0 10 -9 10 -20 0 -11 -5 -20 -11
-20 -5 0 -8 -4 -5 -9 6 -8 -35 -62 -86 -113 -16 -15 -28 -31 -28 -35 0 -16
-50 -66 -51 -52 -6 66 11 755 19 806 7 40 16 58 37 75 66 53 109 64 100 26z
m-303 -177 c-10 -6 -9 -10 7 -14 16 -4 21 -13 21 -39 -1 -117 11 -540 16 -573
6 -39 32 -75 54 -75 6 0 10 -8 8 -17 -2 -12 3 -18 14 -17 9 1 19 -5 22 -13 3
-8 2 -11 -4 -8 -11 7 -33 -32 -26 -44 3 -5 -1 -11 -9 -15 -8 -3 -12 -12 -9
-20 4 -9 -1 -13 -13 -13 -10 1 -17 -4 -16 -10 2 -7 -2 -13 -7 -13 -13 0 -34
-22 -92 -95 -63 -79 -112 -148 -114 -160 -12 -58 -52 -107 -134 -163 -25 -16
-58 -44 -75 -62 -16 -17 -46 -39 -65 -48 -19 -9 -62 -36 -95 -60 -50 -36 -65
-42 -90 -37 -16 4 -51 9 -77 12 -40 4 -48 2 -58 -16 -6 -12 -14 -21 -18 -21
-12 0 -45 64 -49 94 -2 17 -7 32 -11 35 -4 4 -17 27 -30 52 -18 38 -22 63 -22
141 0 91 13 158 30 158 11 0 21 -30 14 -41 -3 -6 -2 -15 3 -22 5 -7 9 -37 8
-67 -1 -56 15 -112 40 -136 7 -8 27 -14 43 -14 46 0 54 33 45 170 -4 63 -7
167 -7 230 3 270 2 261 30 242 12 -7 25 -110 44 -337 15 -184 30 -254 55 -271
13 -8 30 -11 40 -8 13 5 16 4 11 -4 -10 -16 19 -15 32 1 8 9 8 26 0 57 -5 25
-11 117 -13 205 -2 155 -33 424 -53 463 -5 9 -7 23 -4 31 3 9 0 11 -8 6 -19
-12 -2 34 28 75 26 35 100 116 198 215 28 28 66 61 86 73 19 12 43 31 54 43
30 35 176 139 193 139 13 0 13 -2 3 -9z m-826 -1029 c-12 -12 -18 8 -10 35 l8
28 4 -28 c2 -16 1 -31 -2 -35z m676 -349 c-6 -2 -10 -8 -8 -11 6 -12 -68 -124
-96 -145 -29 -22 -138 -37 -138 -20 0 13 33 46 97 100 66 55 113 83 138 82 11
0 14 -3 7 -6z m2006 -600 c8 -27 22 -76 34 -111 26 -83 22 -92 -45 -92 -56 0
-62 5 -82 65 -8 25 -5 15 -20 78 -12 53 -12 54 16 80 17 16 41 27 57 27 24 0
29 -5 40 -47z m-246 -108 c3 -13 2 -22 -2 -20 -11 7 -20 45 -10 45 4 0 10 -11
12 -25z m-160 -78 c72 -34 111 -35 144 -2 32 32 38 32 63 -9 24 -39 20 -61
-11 -63 -33 -3 -76 -23 -82 -39 -4 -10 -26 -14 -84 -14 -48 0 -90 -6 -108 -14
-27 -13 -62 -20 -91 -17 -7 1 -13 8 -13 17 0 18 61 137 72 142 5 2 8 9 8 16 0
20 39 13 102 -17z m-708 -158 c-6 -11 -24 -2 -24 11 0 5 7 7 15 4 8 -4 12 -10
9 -15z m-150 -8 c10 -16 -11 -58 -31 -63 -18 -5 -84 36 -73 45 4 3 72 22 92
26 4 0 9 -3 12 -8z m690 -538 c10 -37 25 -88 33 -113 8 -25 16 -49 17 -55 15
-58 19 -73 25 -90 24 -62 65 -187 75 -235 7 -30 20 -68 28 -85 13 -26 31 -87
42 -150 2 -12 13 -36 23 -55 11 -19 22 -52 26 -73 3 -21 19 -73 36 -115 41
-106 64 -182 47 -159 -7 9 -18 17 -23 17 -6 0 -16 15 -23 33 -6 17 -16 40 -21
49 -5 10 -9 26 -9 37 0 10 -9 30 -20 44 -11 14 -20 32 -20 40 0 9 -5 17 -10
19 -12 4 -41 108 -34 120 3 4 1 8 -4 8 -5 0 -15 15 -22 33 -7 17 -16 41 -21
52 -5 11 -16 43 -24 70 -9 28 -20 59 -25 70 -4 11 -18 56 -30 100 -12 44 -25
94 -30 110 -31 111 -55 209 -74 306 -3 16 -14 47 -24 69 -4 8 -6 28 -4 43 l3
28 22 -25 c12 -14 30 -56 41 -93z m276 -445 c0 -6 8 -20 18 -31 15 -19 16 -20
0 -14 -9 3 -19 1 -22 -6 -2 -7 -5 -3 -5 8 -1 11 -4 31 -8 44 -4 17 -3 22 5 17
7 -4 12 -12 12 -18z m30 -74 c0 -8 -4 -12 -10 -9 -5 3 -10 10 -10 16 0 5 5 9
10 9 6 0 10 -7 10 -16z m203 -63 c18 -20 47 -47 63 -61 32 -27 68 -81 79 -120
4 -14 18 -49 31 -78 13 -29 24 -55 24 -58 0 -3 7 -20 15 -37 8 -18 35 -88 59
-155 47 -128 64 -166 149 -342 58 -120 102 -190 146 -238 41 -44 32 -56 -37
-48 -55 7 -65 13 -120 80 -7 9 -19 13 -25 9 -9 -5 -9 -3 0 8 10 13 4 20 -40
45 l-52 30 0 61 c0 42 -5 67 -16 79 -38 43 -172 327 -183 388 -5 25 -67 186
-106 276 -27 61 -34 88 -46 166 -7 43 17 41 59 -5z m-151 -77 c3 -16 22 -74
43 -129 20 -55 46 -129 57 -165 12 -36 23 -72 26 -80 3 -8 6 -17 7 -20 7 -28
19 -56 25 -60 11 -7 100 -197 100 -213 0 -7 6 -21 13 -32 17 -24 30 -85 19
-85 -5 0 -16 19 -26 43 -42 102 -62 143 -78 161 -12 13 -14 24 -8 42 6 14 6
26 0 29 -6 4 -10 0 -11 -7 0 -7 -5 -2 -10 12 -6 14 -9 26 -7 26 2 1 -5 10 -14
21 -10 10 -19 29 -21 41 -2 12 -9 28 -15 34 -7 7 -12 16 -12 21 0 8 -13 42
-45 112 -7 17 -16 46 -19 66 -4 21 -14 52 -23 70 -10 19 -18 39 -20 44 -1 6
-11 42 -21 80 -10 39 -17 76 -14 83 6 18 48 -55 54 -94z m603 -229 c5 -6 26
-21 45 -33 31 -18 80 -71 80 -86 0 -3 14 -36 31 -73 17 -37 44 -99 61 -138 17
-38 34 -77 39 -85 5 -8 42 -82 83 -165 42 -82 88 -162 103 -178 48 -47 75 -67
95 -67 22 0 23 -13 4 -29 -15 -13 -32 -15 -186 -25 -91 -6 -96 -6 -122 18 -31
28 -35 48 -13 66 18 15 19 34 2 52 -27 27 -87 128 -152 253 -68 132 -86 176
-137 325 -15 47 -31 92 -35 100 -3 8 -7 17 -8 20 0 3 -4 15 -9 27 -4 13 -4 28
-1 34 9 14 106 1 120 -16z m1070 -135 c3 -5 1 -10 -4 -10 -6 0 -11 5 -11 10 0
6 2 10 4 10 3 0 8 -4 11 -10z"/>
<path d="M5776 9743 l-28 -28 5 -205 c2 -113 9 -217 15 -232 17 -42 48 -68 74
-63 42 8 50 32 43 135 -3 52 -8 164 -9 248 -2 84 -5 154 -7 156 -2 2 -18 7
-35 10 -25 6 -35 2 -58 -21z"/>
<path d="M5580 9639 c-16 -17 -33 -48 -37 -68 -4 -20 -7 -139 -7 -266 -1 -220
0 -231 20 -251 11 -11 30 -23 42 -26 32 -9 50 55 57 207 3 72 10 188 17 258
10 121 10 129 -8 143 -46 36 -52 36 -84 3z"/>
<path d="M4170 10767 c0 -5 -8 -16 -17 -24 -17 -14 -17 -14 0 -9 12 4 17 0 17
-14 0 -13 -5 -18 -15 -14 -11 4 -13 2 -9 -9 3 -8 -5 -27 -18 -42 -13 -15 -24
-31 -24 -36 -1 -5 -2 -10 -4 -11 -3 -5 -10 -43 -13 -73 -2 -33 -15 -50 -37
-50 -8 0 -16 -8 -18 -17 -2 -10 1 -18 7 -18 24 0 9 -19 -19 -25 -24 -5 -32
-14 -40 -44 -5 -21 -23 -52 -40 -69 -16 -18 -31 -37 -31 -44 -2 -19 -5 -31
-11 -48 -3 -8 -11 -33 -18 -55 -21 -69 -45 -114 -59 -115 -8 0 -11 -3 -8 -6 7
-8 -23 -64 -34 -64 -4 0 -10 -13 -14 -30 -4 -16 -11 -30 -16 -30 -6 0 -9 -6
-7 -12 3 -17 -24 -78 -35 -78 -5 0 -6 -4 -3 -8 2 -4 -11 -37 -30 -72 -18 -36
-52 -101 -74 -145 -46 -92 -56 -108 -90 -146 -14 -15 -38 -58 -54 -95 -16 -38
-35 -76 -43 -85 -7 -8 -13 -23 -13 -32 0 -9 -5 -17 -10 -17 -11 0 -73 -121
-66 -128 4 -4 -15 -41 -45 -91 -8 -11 -19 -21 -26 -21 -7 0 -13 -4 -13 -10 0
-5 -6 -10 -14 -10 -12 0 -58 -79 -55 -96 0 -4 -3 -10 -8 -13 -4 -3 -17 -22
-27 -41 -24 -42 -24 -43 -73 -99 -21 -25 -31 -41 -23 -37 12 6 12 5 -1 -6 -25
-21 -87 -115 -100 -153 -7 -19 -17 -35 -21 -35 -4 0 -8 -9 -8 -19 0 -11 -7
-26 -15 -35 -8 -8 -15 -17 -15 -21 0 -3 -10 -16 -22 -28 -34 -33 -47 -61 -37
-79 6 -11 4 -18 -6 -22 -8 -3 -14 -2 -14 2 3 19 -2 23 -16 12 -12 -10 -13 -16
-3 -28 11 -13 11 -14 0 -8 -18 11 -62 -1 -62 -17 0 -7 -9 -18 -20 -25 -11 -7
-20 -18 -20 -26 0 -7 -9 -25 -20 -38 -10 -14 -17 -27 -15 -30 3 -3 -6 -11 -20
-18 -22 -12 -30 -24 -22 -33 1 -1 -12 -17 -30 -34 -18 -18 -46 -54 -63 -81
-17 -28 -37 -53 -45 -56 -8 -3 -15 -11 -15 -18 0 -7 -18 -33 -40 -58 -22 -25
-47 -54 -57 -65 -10 -11 -18 -24 -19 -30 0 -5 -2 -16 -2 -22 -1 -7 -6 -13 -12
-13 -19 0 -60 -52 -60 -76 0 -21 -4 -24 -20 -19 -15 5 -18 3 -14 -10 4 -9 2
-15 -4 -13 -14 4 -101 -62 -107 -83 -3 -9 -17 -20 -30 -23 -14 -4 -25 -13 -25
-21 0 -8 -7 -15 -15 -15 -9 0 -15 -9 -15 -21 0 -19 -2 -20 -17 -8 -15 13 -15
12 -5 -8 10 -19 9 -20 -8 -16 -14 4 -22 -2 -29 -20 -5 -13 -17 -27 -25 -30 -9
-4 -15 -12 -14 -18 2 -7 -6 -15 -18 -18 -22 -7 -74 -45 -74 -55 0 -4 -12 -19
-27 -33 -16 -14 -27 -29 -26 -34 2 -4 -3 -6 -11 -3 -7 3 -16 -2 -20 -11 -4
-11 -2 -14 7 -8 6 4 -5 -10 -26 -30 -20 -21 -42 -35 -47 -32 -6 3 -7 -1 -4 -9
4 -11 0 -16 -11 -16 -9 0 -14 -4 -11 -8 2 -4 -7 -13 -22 -20 -33 -14 -178
-150 -174 -163 1 -5 -9 -14 -22 -21 -14 -6 -30 -24 -35 -40 -6 -16 -15 -27
-21 -23 -6 3 -7 0 -4 -9 6 -16 -10 -23 -19 -8 -2 4 -2 2 -1 -5 7 -27 -19 -73
-51 -92 -22 -13 -35 -16 -37 -9 -3 7 -10 8 -17 4 -11 -7 -11 -10 0 -17 11 -7
10 -11 -6 -23 -25 -19 -34 -20 -41 -1 -5 11 -9 12 -19 2 -7 -7 -11 -15 -9 -19
2 -3 -12 -12 -31 -18 -33 -11 -80 -70 -55 -70 5 0 10 -4 10 -10 0 -5 -9 -10
-19 -10 -10 0 -22 -7 -25 -16 -9 -24 -7 -31 4 -14 7 11 10 12 10 2 0 -9 11 -4
31 12 17 14 36 26 43 26 12 0 66 45 136 113 14 13 50 40 80 59 54 34 95 70
314 272 338 312 774 751 833 836 15 22 99 127 113 140 21 21 59 93 54 102 -4
6 -3 8 3 5 11 -7 103 85 123 123 17 32 80 111 101 127 10 7 29 34 44 60 15 27
38 59 50 73 12 14 38 52 59 85 42 70 128 196 185 275 23 30 56 80 74 110 19
30 53 85 75 122 23 37 42 72 42 78 0 6 19 38 41 72 83 122 284 492 304 558 4
14 29 64 56 112 55 96 232 483 286 623 19 50 41 103 49 118 8 16 17 46 20 68
4 25 11 36 18 32 6 -4 5 1 -2 10 -16 19 -8 53 13 61 28 10 15 25 -20 24 -19
-1 -35 -6 -35 -11z m-1290 -2387 c0 -5 -2 -10 -4 -10 -3 0 -8 5 -11 10 -3 6
-1 10 4 10 6 0 11 -4 11 -10z m-60 -114 c0 -3 -4 -8 -10 -11 -5 -3 -10 -1 -10
4 0 6 5 11 10 11 6 0 10 -2 10 -4z m-918 -1006 c-12 -11 -24 -20 -28 -20 -4 0
1 9 11 20 10 11 23 20 28 20 6 0 1 -9 -11 -20z"/>
<path d="M8146 10551 c-4 -6 -4 -11 0 -11 4 0 -2 -8 -12 -17 -11 -10 -35 -43
-53 -73 -18 -30 -42 -64 -52 -75 -10 -12 -21 -44 -25 -73 -6 -50 -5 -52 17
-52 33 0 87 35 101 65 6 14 15 25 19 25 14 0 89 147 89 174 0 22 -4 26 -28 26
-15 0 -33 5 -39 11 -8 8 -13 8 -17 0z"/>
<path d="M4047 10523 c-12 -12 -7 -22 8 -17 8 4 15 10 15 15 0 11 -14 12 -23
2z"/>
<path d="M11363 10451 c3 -11 -1 -28 -8 -38 -7 -10 -15 -63 -19 -118 -4 -55
-11 -113 -16 -130 -13 -42 -39 -190 -55 -315 -8 -58 -23 -157 -34 -220 -11
-63 -23 -128 -26 -145 -17 -93 -37 -194 -45 -220 -5 -16 -11 -48 -15 -70 -3
-22 -7 -47 -10 -55 -2 -8 -7 -28 -9 -45 -3 -16 -10 -50 -16 -75 -5 -25 -22
-108 -36 -185 -14 -77 -28 -147 -31 -155 -8 -21 -44 -180 -46 -205 -1 -11 -5
-24 -8 -30 -4 -5 -12 -37 -19 -70 -6 -33 -18 -78 -25 -100 -8 -22 -26 -93 -40
-157 -14 -65 -35 -143 -46 -175 -11 -32 -23 -74 -25 -93 -3 -19 -10 -53 -16
-75 -6 -22 -11 -44 -9 -49 1 -5 -3 -12 -8 -16 -6 -3 -15 -26 -20 -51 -5 -24
-23 -80 -39 -124 -17 -44 -37 -102 -46 -130 -8 -27 -27 -78 -41 -113 -14 -34
-35 -93 -45 -130 -30 -108 -69 -219 -117 -335 -24 -59 -53 -133 -64 -165 -10
-31 -23 -66 -28 -77 -20 -44 -74 -184 -96 -245 -20 -56 -51 -131 -85 -205 -5
-11 -21 -49 -36 -85 -14 -36 -37 -83 -49 -105 -13 -22 -33 -69 -45 -104 -24
-71 -90 -211 -153 -320 -11 -20 -27 -54 -36 -76 -18 -44 -87 -166 -133 -232
-16 -23 -44 -74 -64 -113 -19 -40 -52 -86 -75 -107 -22 -20 -46 -50 -53 -68
-7 -17 -20 -38 -29 -46 -13 -14 -21 -51 -18 -86 1 -6 15 -16 32 -22 39 -13 42
-14 35 -2 -4 5 3 7 14 4 25 -7 48 20 95 107 19 36 47 79 61 95 15 17 35 50 46
75 10 25 48 101 82 170 35 69 67 140 71 158 6 29 10 33 31 31 4 0 15 19 26 43
10 23 23 45 29 48 5 4 12 30 16 59 4 32 12 56 23 64 26 18 72 111 64 130 -4
10 -1 17 6 17 6 0 10 6 7 13 -5 14 30 82 56 109 9 10 17 25 17 33 0 8 5 14 12
12 7 -1 23 30 38 73 14 41 30 82 35 90 27 42 38 73 56 165 11 55 26 103 32
107 8 5 7 8 -3 8 -9 0 -11 3 -5 8 17 12 38 60 31 71 -4 5 5 18 19 27 14 9 24
22 21 29 -2 6 14 45 36 86 43 81 75 168 80 220 2 19 6 36 10 39 4 3 11 24 16
47 8 34 7 40 -4 36 -17 -6 -9 20 14 52 13 19 14 18 8 -10 -6 -28 -5 -29 9 -11
8 11 15 36 15 57 0 22 8 47 21 63 14 18 16 26 7 26 -8 0 -9 3 -2 8 13 9 51 90
60 128 4 16 12 40 20 54 7 14 22 59 34 100 12 41 28 89 35 105 7 17 16 51 19
77 4 26 11 50 17 53 5 4 7 11 4 16 -4 5 -1 9 4 9 14 0 14 55 1 81 -11 20 -1
26 17 8 7 -7 12 10 16 57 2 36 9 69 14 73 6 3 18 29 28 56 10 28 22 55 26 60
11 16 29 122 33 205 3 59 8 76 20 78 18 4 22 22 5 22 -6 0 -4 7 4 15 9 8 18
33 22 55 4 22 11 40 16 40 4 0 6 7 3 15 -4 8 1 33 10 55 9 22 13 40 9 40 -4 0
-2 5 5 12 16 16 15 59 -3 82 -16 21 -20 40 -7 32 5 -3 7 13 5 35 -2 29 1 41
13 46 8 3 13 12 10 20 -3 7 2 17 12 21 9 4 18 16 19 27 1 11 5 35 9 53 5 23 3
32 -7 32 -12 0 -12 2 0 9 12 8 16 21 20 73 0 9 8 24 17 33 11 11 15 29 12 59
-1 24 0 42 3 40 7 -4 19 72 19 122 0 18 5 34 12 36 6 2 12 24 13 49 1 25 6 53
12 63 5 9 8 40 5 67 -2 28 -1 80 3 115 5 54 10 64 22 60 14 -6 14 -4 2 10 -8
10 -14 24 -14 33 0 9 -3 21 -7 26 -9 14 20 78 32 70 5 -3 10 0 10 9 0 8 -6 17
-12 19 -8 3 -6 6 4 6 19 1 44 72 34 97 -3 7 -1 16 5 19 5 4 7 10 4 15 -3 5 -8
38 -11 72 -3 35 -7 74 -10 86 -3 13 0 30 6 37 6 7 13 28 15 46 3 19 7 43 9 54
2 11 1 24 -2 30 -8 13 -11 48 -4 59 2 4 5 28 6 51 1 23 7 49 15 58 7 9 10 25
6 37 -8 26 -29 27 -22 1z"/>
<path d="M11380 10160 c0 -11 -5 -20 -12 -20 -9 0 -9 -3 0 -12 6 -6 14 -10 16
-7 10 10 14 59 5 59 -5 0 -9 -9 -9 -20z"/>
<path d="M11352 10100 c0 -14 2 -19 5 -12 2 6 2 18 0 25 -3 6 -5 1 -5 -13z"/>
<path d="M11370 10070 c0 -5 5 -10 10 -10 6 0 10 5 10 10 0 6 -4 10 -10 10 -5
0 -10 -4 -10 -10z"/>
<path d="M6610 9830 c0 -5 7 -7 15 -4 8 4 15 8 15 10 0 2 -7 4 -15 4 -8 0 -15
-4 -15 -10z"/>
<path d="M6630 9810 c0 -5 5 -10 10 -10 6 0 10 5 10 10 0 6 -4 10 -10 10 -5 0
-10 -4 -10 -10z"/>
<path d="M11574 9410 c-18 -7 -22 -19 -27 -92 -3 -46 -11 -97 -17 -113 -7 -17
-18 -59 -26 -95 -7 -36 -18 -74 -22 -85 -15 -34 -30 -88 -37 -135 -4 -25 -16
-79 -27 -120 -10 -41 -30 -135 -43 -210 -14 -74 -34 -162 -46 -195 -25 -72
-37 -117 -45 -170 -3 -22 -15 -67 -26 -99 -10 -33 -34 -120 -53 -195 -93 -381
-152 -579 -225 -761 -24 -58 -51 -132 -60 -165 -30 -100 -75 -216 -117 -300
-22 -44 -52 -114 -67 -155 -15 -41 -37 -95 -50 -120 -14 -25 -50 -108 -80
-185 -31 -77 -60 -147 -65 -156 -5 -9 -27 -58 -49 -110 -40 -93 -183 -381
-214 -429 -8 -14 -30 -52 -49 -85 -62 -113 -84 -152 -113 -196 -46 -68 -106
-186 -106 -206 0 -12 7 -7 23 16 12 19 30 46 39 60 10 14 18 32 18 39 0 6 18
28 39 47 22 20 48 55 59 78 11 23 32 53 46 66 14 14 26 30 26 37 0 7 5 16 12
20 8 5 9 2 5 -9 -3 -9 -2 -19 3 -22 10 -6 14 7 11 33 -1 6 3 13 9 13 5 1 15 2
21 3 12 1 48 47 49 61 0 6 7 23 15 39 8 16 15 43 15 60 0 17 0 43 1 57 0 18
10 35 31 50 17 13 36 29 42 35 6 6 18 13 26 17 8 3 10 6 3 6 -18 1 12 86 50
139 18 26 45 70 59 97 26 49 32 68 45 145 3 19 17 47 31 62 16 18 23 34 19 48
-5 20 1 30 61 97 23 27 28 38 13 29 -5 -4 -8 1 -7 9 3 18 16 32 16 17 0 -7 4
-12 8 -12 5 0 10 21 10 46 1 25 9 59 18 75 8 17 17 44 19 60 2 17 9 37 15 45
7 8 9 25 5 41 -6 27 -6 27 9 8 16 -21 19 -18 20 35 1 19 6 24 20 22 14 -3 17
1 12 14 -4 10 0 21 11 29 14 10 15 16 5 28 -10 11 -9 17 2 26 8 7 12 20 9 28
-4 11 -2 14 5 9 7 -4 12 -1 12 8 0 9 -4 16 -10 16 -5 0 -10 7 -10 15 0 8 6 15
13 15 8 0 20 19 27 43 8 23 18 48 23 55 5 6 7 12 3 12 -4 0 0 10 9 23 8 13 12
26 9 30 -3 3 1 16 10 28 10 15 12 27 6 39 -11 20 -4 31 15 24 7 -3 15 3 18 13
3 10 16 48 30 84 13 37 28 93 33 125 4 33 9 68 11 79 2 11 4 25 5 32 1 7 5 10
10 6 5 -3 8 9 6 25 -2 17 1 30 5 29 9 -2 50 59 55 82 5 25 10 46 12 46 1 0 4
16 7 35 2 19 9 38 15 41 7 4 6 9 -2 14 -9 5 -9 9 -1 14 6 4 12 20 13 37 1 16
4 33 6 38 3 5 6 21 8 35 1 14 7 40 14 56 6 17 11 32 10 34 -1 2 2 7 7 10 27
18 93 291 89 366 -2 27 6 58 24 95 44 88 62 161 58 229 -1 33 1 61 6 61 4 0 5
7 2 15 -3 9 1 18 9 21 8 3 17 22 20 42 6 37 29 110 46 147 21 48 66 251 84
382 2 12 6 27 10 32 3 6 2 11 -3 11 -5 0 -19 9 -32 20 -25 22 -34 23 -66 10z
m-644 -2650 c0 -5 -4 -10 -10 -10 -5 0 -10 5 -10 10 0 6 5 10 10 10 6 0 10 -4
10 -10z m-48 -52 c-7 -7 -12 -8 -12 -2 0 14 12 26 19 19 2 -3 -1 -11 -7 -17z"/>
<path d="M11889 8309 c0 -2 -2 -12 -4 -21 -2 -10 1 -20 6 -24 5 -3 6 -10 3
-16 -4 -6 -2 -8 4 -5 11 7 10 53 -2 64 -3 3 -6 4 -7 2z"/>
<path d="M11874 7930 c-1 -16 3 -27 7 -24 11 6 12 54 2 54 -5 0 -8 -13 -9 -30z"/>
<path d="M11276 7558 c3 -5 1 -14 -5 -21 -5 -7 -11 -54 -12 -104 -2 -51 -6
-90 -10 -87 -4 2 -12 -22 -19 -53 -6 -32 -22 -93 -35 -136 -14 -43 -25 -92
-25 -108 0 -16 -6 -44 -13 -62 -8 -18 -19 -57 -26 -87 -7 -30 -30 -109 -51
-175 -21 -66 -42 -138 -46 -160 -7 -43 -28 -127 -67 -270 -49 -176 -55 -200
-62 -240 -6 -39 -78 -280 -95 -320 -21 -50 -90 -279 -90 -299 0 -12 -4 -26 -9
-32 -7 -8 -28 -69 -71 -209 -18 -58 -62 -221 -86 -314 -13 -52 -30 -104 -38
-116 -8 -12 -19 -46 -25 -76 -5 -30 -19 -97 -31 -149 -37 -161 -50 -231 -61
-345 -8 -85 -16 -122 -36 -160 -25 -47 -26 -58 -24 -174 1 -70 6 -132 13 -145
6 -11 11 -22 10 -23 -14 -21 45 -78 81 -81 24 -2 27 1 22 18 -5 15 -2 20 12
20 16 0 19 9 21 61 1 33 -3 69 -9 80 -9 19 -11 103 -4 204 9 131 27 281 36
296 5 10 6 25 3 33 -4 9 -2 22 4 29 5 6 12 30 15 52 10 71 47 224 76 318 16
51 37 119 46 152 9 33 22 66 27 73 6 6 7 12 3 12 -4 0 0 12 10 26 9 14 17 39
17 55 1 16 5 32 10 35 4 3 8 23 8 45 0 24 5 39 13 39 9 0 9 2 0 8 -10 6 -8 17
8 47 28 52 76 199 84 259 4 27 11 56 15 65 5 9 19 50 30 91 37 129 71 244 80
270 8 22 20 80 36 175 3 17 6 63 7 103 2 49 7 76 16 82 8 4 11 15 8 25 -4 10
-3 14 4 9 7 -4 9 0 5 13 -8 26 2 53 20 53 9 0 14 11 14 27 0 14 7 34 15 43 9
10 18 33 20 52 2 19 18 76 35 127 16 51 30 109 30 129 0 21 14 74 30 120 16
45 25 80 20 77 -4 -3 -11 7 -14 21 -5 20 -2 30 14 41 23 16 27 35 5 27 -9 -4
-15 0 -15 10 0 9 5 16 11 16 6 0 9 9 6 19 -3 14 -1 18 9 14 15 -5 20 18 7 31
-15 15 -9 81 9 100 10 11 15 22 11 25 -11 8 -14 61 -4 61 5 0 6 12 3 28 -5 27
-5 27 17 8 11 -11 21 -14 21 -9 0 6 -7 14 -16 17 -11 4 -15 20 -14 58 0 29 -1
64 -3 78 -2 14 3 37 10 52 16 34 16 35 -2 35 -8 0 -12 -4 -9 -9z"/>
<path d="M11230 6974 c0 -8 5 -12 10 -9 6 4 8 11 5 16 -9 14 -15 11 -15 -7z"/>
<path d="M1332 6751 c-11 -7 -11 -9 2 -14 10 -4 16 -1 16 8 0 17 -1 17 -18 6z"/>
<path d="M1036 6477 c3 -10 9 -15 12 -12 3 3 0 11 -7 18 -10 9 -11 8 -5 -6z"/>
<path d="M1341 6402 c-46 -5 -62 -23 -59 -69 3 -32 26 -73 42 -73 3 0 17 -5
33 -12 37 -15 52 -17 161 -22 51 -3 99 -9 105 -14 18 -15 117 -42 153 -42 19
0 53 -7 76 -14 45 -16 98 -28 134 -31 11 -1 25 -5 32 -9 7 -4 12 -2 12 5 0 10
3 10 12 1 7 -7 22 -12 35 -12 21 0 86 -19 143 -43 14 -5 43 -12 65 -14 22 -2
46 -6 53 -8 25 -9 11 -42 -33 -74 -24 -17 -50 -37 -57 -44 -7 -7 -38 -32 -68
-56 -30 -24 -90 -77 -133 -117 -43 -41 -83 -74 -88 -74 -5 0 -9 -7 -9 -16 0
-8 -4 -12 -10 -9 -5 3 -7 0 -4 -8 3 -8 0 -18 -6 -22 -11 -7 32 -55 50 -55 4 0
10 -5 12 -12 5 -14 53 16 88 55 14 15 43 49 65 74 39 44 185 160 215 171 12 4
112 83 130 102 34 37 96 48 117 20 7 -8 13 -11 13 -6 0 5 8 2 18 -6 9 -8 45
-18 79 -21 55 -6 101 -20 158 -50 26 -13 128 -37 136 -31 14 8 175 -28 318
-72 29 -9 79 -20 110 -24 31 -4 81 -15 111 -23 30 -8 57 -14 61 -12 3 2 39 -4
80 -14 41 -10 99 -22 129 -26 30 -4 66 -14 80 -23 27 -18 31 -19 110 -31 30
-5 69 -15 85 -22 30 -12 79 -22 193 -39 34 -5 70 -13 79 -18 9 -5 24 -7 34 -5
11 3 19 0 19 -6 0 -6 13 -11 30 -11 16 0 69 -12 117 -26 49 -14 111 -27 138
-29 82 -6 139 -16 160 -28 11 -6 24 -10 30 -8 5 1 34 -5 65 -14 30 -9 73 -21
95 -27 54 -14 96 -28 122 -40 13 -6 37 -7 60 -2 50 10 82 9 116 -5 16 -6 32
-11 36 -11 5 0 14 -7 21 -15 8 -9 30 -15 59 -15 26 0 51 -4 56 -8 6 -5 45 -17
88 -27 42 -9 77 -20 77 -24 0 -4 8 -7 18 -8 86 -6 143 -12 152 -18 5 -3 15 -3
20 0 6 3 10 1 10 -4 0 -6 7 -11 15 -11 9 0 32 -8 53 -18 20 -10 58 -19 85 -20
26 -1 55 -6 65 -11 9 -5 40 -12 67 -16 28 -3 82 -17 122 -30 39 -14 120 -32
180 -41 59 -9 115 -19 123 -22 8 -3 20 -7 25 -8 6 -1 12 -3 15 -4 3 -1 23 -4
45 -6 22 -3 69 -15 105 -28 37 -13 94 -23 130 -25 37 -1 100 -13 145 -28 44
-14 121 -31 170 -38 50 -7 133 -23 185 -35 52 -12 122 -26 155 -30 54 -7 287
-64 304 -74 4 -3 43 -6 87 -7 43 -1 84 -6 89 -10 6 -4 29 -10 52 -14 24 -4 45
-11 49 -16 3 -5 25 -9 50 -9 25 0 53 -4 63 -9 10 -6 40 -12 67 -15 140 -15
166 -20 170 -31 3 -6 20 -12 39 -13 57 -2 169 -23 175 -32 3 -5 37 -12 75 -14
100 -8 154 -17 161 -27 3 -5 25 -9 49 -9 25 0 76 -5 114 -12 61 -10 71 -10 86
5 20 21 29 22 22 3 -6 -14 39 -30 108 -40 17 -2 41 -7 55 -10 14 -4 46 -8 72
-9 43 -2 48 0 59 25 6 15 15 28 20 28 5 0 9 5 9 10 0 6 -8 10 -19 10 -10 0
-30 9 -44 20 -17 14 -41 20 -74 20 -45 0 -100 8 -336 44 -140 22 -326 55 -366
66 -57 14 -177 38 -286 55 -55 9 -129 24 -165 35 -36 10 -99 23 -140 30 -41 6
-97 17 -125 25 -139 40 -254 65 -295 65 -25 1 -63 8 -85 16 -22 8 -94 27 -160
40 -164 35 -165 35 -171 45 -3 5 -19 9 -36 9 -46 0 -163 21 -303 56 -33 8 -82
19 -110 24 -27 6 -70 15 -95 20 -25 6 -70 14 -100 19 -55 9 -233 56 -248 65
-5 3 -35 8 -68 11 -32 4 -78 13 -102 21 -23 7 -75 19 -115 25 -39 6 -108 21
-152 34 -79 23 -251 66 -350 87 -27 5 -68 16 -90 24 -22 7 -71 16 -110 20 -40
3 -100 18 -140 34 -46 19 -127 37 -240 54 -93 15 -186 33 -205 41 -19 9 -62
19 -95 24 -33 6 -89 16 -125 25 -36 8 -103 22 -150 31 -47 9 -112 26 -145 37
-33 11 -105 28 -160 38 -55 10 -127 26 -160 34 -33 8 -96 22 -140 32 -44 9
-100 23 -125 30 -25 7 -99 22 -165 34 -66 12 -133 28 -150 35 -32 15 -67 23
-130 30 -22 3 -64 12 -94 21 -29 8 -55 13 -58 10 -3 -2 -24 2 -46 11 -46 17
-84 26 -199 47 -43 8 -87 20 -98 26 -11 6 -37 12 -58 14 -24 3 -38 9 -40 20
-2 9 1 16 7 16 6 0 11 8 11 18 0 9 9 23 20 30 26 16 25 26 -4 40 -19 8 -26 7
-39 -9 -9 -10 -23 -19 -30 -19 -8 0 -22 -9 -32 -20 -22 -24 -105 -28 -145 -7
-15 8 -56 17 -92 20 -37 3 -75 10 -85 15 -59 30 -193 64 -365 92 -73 12 -152
28 -176 36 -24 8 -47 12 -52 9 -5 -3 -11 -1 -15 5 -3 5 -22 10 -41 10 -20 0
-45 5 -56 11 -12 6 -39 11 -62 11 -23 -1 -50 5 -62 13 -39 25 -89 40 -123 37z"/>
<path d="M9290 6159 c0 -5 5 -7 10 -4 6 3 10 8 10 11 0 2 -4 4 -10 4 -5 0 -10
-5 -10 -11z"/>
<path d="M1573 5372 c-38 -4 -55 -28 -60 -87 -3 -35 0 -45 27 -68 16 -15 30
-23 30 -17 0 6 10 4 23 -4 27 -17 59 -24 151 -31 38 -3 75 -10 81 -15 6 -5 30
-12 53 -16 23 -4 42 -10 42 -14 0 -4 27 -13 59 -21 33 -7 58 -16 55 -20 -2 -4
6 -7 19 -7 56 -1 147 -42 147 -66 0 -7 -11 -35 -25 -62 -14 -27 -25 -57 -25
-66 0 -10 -4 -18 -9 -18 -5 0 -13 -10 -17 -22 -4 -13 -10 -25 -13 -28 -6 -5
-44 -82 -62 -125 -12 -31 -6 -88 14 -118 9 -15 15 -27 11 -27 -4 0 -1 -7 6
-15 7 -9 19 -14 25 -11 7 2 18 -1 24 -7 9 -9 14 -9 20 2 6 9 10 10 12 2 3 -7
12 -9 21 -6 16 6 16 10 3 35 -27 51 -19 111 24 193 21 40 42 84 46 97 11 35
53 69 95 77 19 3 44 12 55 19 27 17 116 13 135 -6 9 -9 41 -22 73 -29 31 -8
57 -18 57 -22 0 -4 19 -10 43 -14 38 -6 120 -28 157 -42 8 -4 17 -7 20 -8 3
-1 16 -6 30 -13 24 -10 75 -25 95 -27 15 -2 115 -35 155 -52 66 -28 75 -32
110 -42 19 -6 46 -12 60 -14 14 -2 32 -7 40 -10 60 -25 146 -47 180 -47 22 0
40 -3 40 -7 0 -5 19 -9 42 -10 22 -2 49 -10 58 -18 10 -9 35 -19 56 -22 22 -3
44 -9 49 -13 12 -9 76 -25 88 -22 5 1 20 -4 35 -12 15 -8 76 -22 137 -30 109
-16 145 -25 303 -73 46 -14 96 -23 113 -21 16 3 29 0 29 -5 0 -5 7 -7 15 -4 8
4 46 -5 86 -18 39 -14 95 -27 123 -31 28 -3 58 -8 66 -11 8 -3 26 -8 40 -10
14 -2 57 -10 95 -19 39 -9 90 -17 115 -19 25 -2 45 -4 45 -5 0 -1 14 -4 30 -6
17 -2 62 -11 100 -19 39 -8 84 -15 100 -17 17 -2 32 -6 35 -10 3 -4 28 -9 56
-12 28 -3 84 -14 126 -25 42 -11 90 -22 107 -23 17 -1 31 -5 31 -8 0 -3 28 -5
62 -6 72 0 163 -12 193 -24 11 -4 33 -13 48 -19 15 -6 43 -11 62 -11 19 0 56
-4 82 -10 26 -5 82 -11 123 -13 41 -1 80 -6 85 -9 22 -12 83 -21 142 -20 36 1
76 -5 98 -14 21 -8 61 -14 89 -13 28 1 58 -1 66 -4 8 -4 67 -9 130 -11 80 -4
118 -10 125 -19 6 -8 25 -13 45 -11 19 1 42 -2 50 -6 25 -13 131 -20 124 -8
-4 6 1 6 14 -1 14 -7 23 -8 27 -1 4 6 13 7 23 1 30 -15 110 -23 130 -12 13 7
22 7 30 -1 9 -9 12 -9 12 1 0 7 5 9 10 6 6 -4 8 -10 5 -15 -5 -9 45 -21 57
-13 5 2 8 13 8 24 0 13 7 19 23 19 23 0 71 28 52 31 -5 1 -26 3 -45 5 -19 2
-57 8 -85 14 -27 5 -79 12 -114 15 -35 4 -73 10 -85 14 -12 5 -60 12 -108 16
-49 4 -88 10 -88 14 0 3 -17 7 -37 7 -49 2 -223 21 -293 33 -91 16 -396 61
-545 81 -77 10 -169 24 -205 30 -252 43 -451 78 -565 100 -27 5 -72 16 -100
24 -27 8 -111 27 -185 42 -193 38 -210 41 -260 54 -25 6 -92 20 -150 30 -58
11 -145 29 -195 40 -96 22 -156 34 -232 49 -27 5 -79 18 -118 29 -122 36 -297
80 -385 97 -85 16 -211 51 -240 65 -9 4 -69 20 -135 35 -66 16 -147 41 -180
57 -33 15 -67 28 -76 28 -22 0 -212 62 -269 88 -25 11 -64 25 -86 31 -23 6
-54 21 -69 32 l-27 22 31 24 c26 21 31 31 31 68 0 36 -5 48 -31 70 -36 30
-109 69 -109 58 0 -4 -5 -2 -12 5 -7 7 -37 12 -68 12 -55 0 -57 -1 -120 -61
l-65 -61 -51 5 c-29 3 -65 12 -80 20 -16 8 -45 17 -64 21 -43 7 -118 26 -145
37 -11 4 -39 11 -62 14 -24 4 -45 11 -49 16 -3 5 -15 9 -27 9 -12 0 -46 9 -75
20 -29 11 -64 20 -78 20 -25 0 -73 27 -104 60 -17 17 -21 17 -67 12z"/>
<path d="M10214 5276 c0 -13 4 -22 9 -19 10 6 9 43 -2 43 -5 0 -8 -11 -7 -24z"/>
<path d="M10071 5054 c0 -11 3 -14 6 -6 3 7 2 16 -1 19 -3 4 -6 -2 -5 -13z"/>
<path d="M9958 4980 c-17 -40 -15 -51 8 -28 9 8 14 26 12 39 -4 22 -5 22 -20
-11z"/>
<path d="M2179 4415 c-3 -40 4 -59 23 -70 9 -5 16 -14 16 -20 -2 -14 44 -43
77 -49 61 -10 171 -57 194 -83 14 -17 19 -29 12 -31 -6 -2 -9 -8 -5 -13 3 -5
0 -9 -5 -9 -6 0 -11 -8 -11 -18 0 -11 -9 -29 -20 -42 -11 -13 -20 -27 -20 -31
0 -4 -25 -35 -56 -69 l-57 -60 36 -35 c20 -19 38 -35 41 -35 2 0 24 20 48 43
24 24 68 60 99 80 31 21 79 62 107 92 l51 54 46 -24 c25 -14 53 -25 61 -25 8
0 27 -8 41 -17 15 -10 39 -18 54 -19 15 -1 51 -13 81 -27 29 -14 80 -33 113
-42 74 -21 256 -85 270 -95 6 -4 37 -15 70 -25 33 -10 71 -26 85 -35 47 -32
99 -52 127 -49 16 2 44 -6 63 -18 19 -11 53 -23 75 -26 22 -3 54 -10 70 -16
32 -11 99 -28 235 -61 47 -12 100 -28 119 -36 18 -9 49 -16 67 -17 19 -1 34
-5 34 -10 0 -4 4 -6 9 -2 5 3 12 1 16 -5 3 -5 14 -10 24 -10 10 0 32 -7 50
-16 18 -9 41 -14 51 -11 11 3 21 -1 24 -10 3 -7 11 -13 18 -12 29 3 49 -2 43
-11 -4 -6 16 -10 53 -10 55 0 90 -9 167 -45 16 -7 33 -11 37 -9 8 5 62 -8 103
-26 63 -26 77 -30 160 -41 39 -5 81 -13 95 -18 14 -5 60 -15 103 -21 43 -6 94
-18 113 -26 18 -8 47 -14 63 -14 31 0 183 -34 200 -44 6 -4 26 -7 46 -8 19 -1
35 -5 35 -9 0 -5 18 -7 40 -5 22 2 43 -1 46 -5 3 -5 10 -9 15 -9 6 0 7 4 4 10
-6 10 22 3 40 -10 6 -4 51 -10 100 -13 50 -3 104 -11 120 -17 17 -7 75 -14
130 -16 76 -3 111 -9 147 -25 28 -13 45 -26 41 -33 -4 -6 4 -4 17 5 48 30 55
34 77 37 13 1 40 -6 60 -17 43 -21 110 -31 236 -34 52 -1 91 -7 95 -13 4 -7
48 -12 120 -12 72 -1 131 -7 160 -16 26 -8 65 -18 87 -21 22 -4 61 -10 86 -14
25 -4 80 -6 122 -5 45 1 77 -2 77 -7 0 -6 4 -8 9 -5 5 3 26 0 47 -8 28 -9 49
-10 77 -3 28 7 45 6 62 -3 13 -7 73 -14 141 -16 154 -4 208 -10 212 -23 4 -11
32 -3 32 10 0 4 -6 6 -14 3 -11 -4 -13 0 -9 15 4 16 9 19 18 11 9 -8 15 -8 20
0 3 5 18 10 33 10 15 0 34 5 42 10 11 7 1 10 -35 10 -28 0 -59 7 -69 15 -11 8
-36 15 -55 15 -20 0 -76 8 -126 16 -49 9 -117 17 -150 19 -64 4 -187 15 -220
20 -11 2 -47 9 -80 14 -124 22 -273 42 -373 51 -56 5 -106 11 -111 14 -5 4
-40 8 -78 11 -37 3 -95 10 -128 15 -124 20 -222 30 -238 25 -8 -4 -35 0 -59 8
-23 8 -86 17 -138 21 -52 3 -115 10 -140 15 -59 13 -166 30 -265 42 -44 6
-111 17 -150 25 -38 8 -95 20 -125 25 -30 6 -89 17 -130 26 -41 8 -111 21
-155 28 -44 7 -105 21 -135 30 -30 9 -75 21 -100 27 -132 29 -263 61 -325 79
-38 11 -119 36 -180 54 -60 18 -155 43 -210 56 -55 12 -165 42 -245 67 -80 24
-158 48 -175 52 -77 19 -226 65 -285 88 -36 13 -96 32 -135 42 -72 19 -193 65
-210 81 -5 5 -21 9 -35 9 -14 0 -30 4 -35 9 -12 11 -216 81 -237 81 -14 0
-109 36 -173 65 -16 7 -48 20 -70 28 -22 8 -69 27 -105 42 -36 15 -74 31 -85
36 -11 4 -60 25 -110 47 -91 40 -132 55 -150 57 -5 0 -36 10 -68 23 -32 12
-69 22 -82 22 -14 0 -25 4 -25 8 0 4 -9 8 -20 8 -13 0 -20 -7 -21 -21z"/>
<path d="M2126 3638 c-20 -10 -41 -29 -45 -41 -9 -23 -3 -57 9 -57 4 0 18 -11
31 -25 13 -14 42 -30 64 -35 22 -6 49 -15 60 -20 25 -11 134 -41 158 -43 9 -1
17 -5 17 -9 0 -4 8 -6 18 -6 21 2 123 -31 136 -43 6 -5 20 -9 32 -9 13 0 25
-4 29 -10 3 -5 12 -7 20 -3 8 3 15 1 15 -4 0 -5 6 -10 13 -10 41 -3 202 -53
199 -63 -1 -6 2 -9 7 -5 6 3 37 -4 70 -15 33 -11 69 -21 78 -23 10 -2 29 -9
43 -17 14 -8 33 -15 43 -16 10 -1 28 -6 40 -11 52 -24 83 -37 102 -40 10 -2
34 -12 53 -23 18 -11 44 -20 57 -20 13 0 26 -4 29 -9 6 -8 18 -11 126 -25 25
-4 47 -11 48 -16 2 -6 10 -10 17 -10 8 0 20 -6 27 -12 29 -28 114 -59 186 -68
42 -6 92 -18 111 -29 20 -10 67 -24 105 -30 39 -7 88 -20 110 -30 67 -29 79
-33 131 -38 28 -2 68 -13 91 -24 22 -10 61 -21 85 -23 24 -2 71 -11 104 -21
33 -10 76 -21 95 -25 19 -5 60 -15 90 -24 30 -9 71 -19 90 -21 19 -2 60 -11
90 -20 140 -39 170 -46 212 -49 54 -4 276 -53 300 -66 9 -5 63 -12 119 -15 55
-3 105 -7 109 -10 11 -7 157 -36 205 -41 22 -2 42 -9 43 -14 2 -6 31 -10 63
-10 38 0 58 4 54 10 -3 6 -2 10 4 10 5 0 11 -6 14 -12 3 -10 9 -10 27 0 20 12
22 12 17 -2 -4 -10 -2 -16 6 -15 6 1 24 -3 40 -9 15 -6 40 -10 57 -8 16 2 31
0 32 -5 2 -4 36 -10 77 -14 40 -3 92 -10 115 -15 23 -5 56 -7 74 -5 18 2 32 0
32 -7 0 -5 7 -8 15 -5 8 4 16 3 19 -1 2 -4 28 -7 58 -7 35 0 58 -5 66 -15 12
-13 13 -13 6 0 -7 13 -5 13 8 2 20 -16 60 -24 68 -14 3 4 20 12 38 19 34 12
82 3 82 -16 0 -15 76 -18 90 -3 7 8 15 10 19 5 9 -12 31 -14 31 -2 0 5 4 8 10
4 5 -3 7 -12 4 -19 -4 -9 3 -14 18 -15 20 -1 69 -5 147 -13 13 -2 26 3 28 10
3 8 -6 12 -26 12 -22 0 -29 4 -25 15 5 11 23 13 92 9 48 -2 104 -6 125 -8 20
-3 35 -1 33 3 -6 9 107 3 161 -9 23 -6 71 -10 106 -10 36 0 102 -7 148 -16 46
-9 118 -17 159 -19 41 -1 100 -7 130 -13 30 -6 114 -14 185 -17 72 -4 164 -13
205 -21 41 -8 118 -17 170 -20 52 -2 109 -6 125 -9 76 -9 151 -15 290 -21 82
-3 153 -8 158 -11 8 -5 84 -9 352 -19 77 -3 154 -9 171 -13 18 -5 38 -5 48 1
9 5 24 7 32 4 8 -3 14 -1 14 4 0 6 26 10 58 10 31 0 85 6 119 13 37 8 59 9 56
3 -4 -5 0 -7 9 -3 9 3 27 -1 42 -8 18 -10 50 -12 108 -9 46 3 100 6 120 6 21
0 36 4 32 9 -3 5 2 6 10 3 9 -3 13 -11 10 -16 -4 -6 2 -5 14 1 27 14 35 14 26
-1 -5 -7 -3 -8 6 -3 17 11 377 13 420 2 55 -13 73 -14 103 -6 18 5 27 4 27 -4
0 -8 3 -8 9 1 10 17 164 15 154 -2 -4 -6 2 -4 12 4 13 11 19 12 22 3 2 -7 11
-9 19 -6 8 3 14 -1 14 -8 0 -11 2 -11 9 0 8 12 12 12 24 2 11 -9 17 -9 22 -1
4 6 14 9 22 6 8 -3 11 -1 8 4 -9 14 9 12 24 -2 11 -11 12 -9 7 9 -6 18 -3 21
22 19 19 -1 34 4 41 16 12 19 13 18 -39 24 -14 1 -45 5 -70 8 -25 3 -153 10
-285 16 -132 5 -260 12 -285 15 -25 2 -297 7 -605 10 -308 3 -578 8 -600 10
-22 3 -112 7 -200 10 -88 3 -187 11 -220 17 -33 6 -85 10 -115 10 -54 -1 -201
11 -350 29 -41 5 -165 18 -275 29 -385 38 -421 42 -511 56 -50 8 -105 14 -122
14 -17 0 -33 4 -36 9 -3 4 -43 11 -88 15 -46 4 -108 13 -138 20 -30 7 -93 19
-140 25 -47 7 -107 16 -135 21 -27 5 -79 12 -115 16 -36 4 -75 11 -88 15 -12
5 -89 18 -171 29 -81 10 -160 24 -175 29 -14 6 -55 13 -89 16 -34 3 -91 10
-127 15 -36 5 -87 12 -115 15 -102 11 -121 14 -180 31 -33 9 -89 22 -125 28
-36 7 -75 18 -88 25 -21 11 -113 32 -337 76 -38 7 -83 18 -98 24 -16 6 -39 11
-51 11 -13 0 -29 7 -36 15 -7 9 -19 14 -27 11 -7 -3 -25 -1 -39 4 -14 6 -44
12 -67 15 -37 5 -160 38 -242 66 -34 12 -129 39 -260 74 -49 13 -108 31 -130
39 -22 8 -48 15 -58 16 -10 0 -51 13 -90 29 -126 51 -263 102 -313 116 -27 8
-67 20 -89 28 -66 24 -137 30 -160 14 -18 -14 -18 -17 -5 -43 28 -55 82 -94
129 -94 16 0 53 -13 83 -28 55 -29 90 -41 142 -48 15 -2 34 -8 42 -15 7 -6 17
-8 22 -5 5 3 24 -5 43 -18 19 -12 66 -31 104 -41 39 -10 79 -24 90 -32 11 -7
25 -13 33 -13 7 0 33 -9 57 -20 25 -11 66 -22 92 -23 47 -3 109 -20 147 -39
10 -5 37 -11 59 -14 22 -2 45 -8 51 -14 5 -5 22 -10 37 -10 15 0 48 -9 74 -20
26 -11 57 -20 70 -20 13 0 27 -4 30 -10 3 -5 19 -10 34 -10 15 0 30 -3 34 -6
17 -17 170 -62 189 -55 22 8 97 -1 143 -17 63 -23 173 -52 235 -63 36 -6 69
-13 74 -17 6 -3 23 -7 40 -9 16 -2 39 -5 50 -8 12 -3 41 -9 66 -14 25 -5 62
-17 82 -25 21 -9 56 -16 78 -16 22 0 40 -4 40 -9 0 -10 113 -24 188 -22 28 0
52 -3 52 -8 0 -21 -58 -21 -170 0 -36 6 -83 13 -105 16 -22 2 -49 8 -60 13
-11 5 -60 11 -110 14 -49 3 -112 12 -138 20 -27 9 -94 22 -150 30 -174 25
-274 45 -326 65 -27 11 -100 27 -162 36 -63 8 -147 24 -189 35 -41 10 -120 28
-175 40 -134 28 -256 57 -335 79 -36 10 -119 31 -185 46 -66 15 -149 37 -185
51 -36 13 -103 32 -150 43 -145 33 -238 59 -277 79 -43 22 -188 67 -248 78
-22 4 -62 17 -90 29 -57 26 -123 49 -210 75 -33 10 -85 28 -115 40 -61 24
-122 43 -315 100 -71 21 -143 43 -160 49 -16 5 -70 22 -120 37 -49 15 -95 31
-101 36 -6 4 -45 19 -87 32 -42 14 -103 39 -134 58 -80 46 -94 48 -137 26z
m4664 -1156 c0 -4 23 -9 52 -10 29 -1 57 -7 62 -12 7 -7 -17 -9 -69 -6 -98 5
-143 15 -123 27 16 11 78 12 78 1z m232 -34 c17 -1 24 -6 19 -11 -12 -12 -103
1 -96 13 3 5 15 7 28 4 12 -2 34 -5 49 -6z m4296 -282 c-7 -8 -15 -12 -17 -11
-5 6 10 25 20 25 5 0 4 -6 -3 -14z"/>
<path d="M6840 2349 c0 -5 5 -7 10 -4 6 3 10 8 10 11 0 2 -4 4 -10 4 -5 0 -10
-5 -10 -11z"/>
</g>
</svg>
